M48
; DRILL file {KiCad (5.1.5)-2} date 3/5/2021 4:55:24 PM
; FORMAT={-:-/ absolute / inch / decimal}
; #@! TF.CreationDate,2021-03-05T16:55:24-06:00
; #@! TF.GenerationSoftware,Kicad,Pcbnew,(5.1.5)-2
; #@! TF.FileFunction,Plated,1,2,PTH
FMAT,2
INCH
T1C0.0157
T2C0.0315
T3C0.0394
%
G90
G05
T1
X5.3825Y-5.5725
X5.625Y-5.295
X5.6625Y-5.235
X5.6725Y-5.44
X5.73Y-5.235
X5.76Y-5.5475
X5.78Y-5.6175
X5.875Y-5.63
X5.8875Y-5.13
X5.89Y-5.59
X6.03Y-5.5975
X6.03Y-5.64
X6.0375Y-5.465
X6.04Y-5.235
X6.0975Y-5.45
X6.1075Y-5.235
X6.1325Y-5.33
X6.16Y-5.285
X6.16Y-5.4325
X6.2325Y-5.14
X6.37Y-5.35
X6.3875Y-4.995
X6.425Y-5.55
X6.425Y-5.625
X6.5625Y-5.7425
X6.565Y-5.1575
X6.6225Y-4.94
X6.625Y-5.94
T3
X5.8316Y-4.64
X5.93Y-4.64
X6.06Y-6.37
X6.1584Y-6.37
T2
G00X5.5238Y-6.1942
M15
G01X5.6262Y-6.1942
M16
G05
G00X5.5317Y-6.4225
M15
G01X5.6183Y-6.4225
M16
G05
G00X5.764Y-6.3556
M15
G01X5.764Y-6.269
M16
G05
T0
M30
