G04 #@! TF.GenerationSoftware,KiCad,Pcbnew,(5.1.5)-2*
G04 #@! TF.CreationDate,2021-03-05T16:55:26-06:00*
G04 #@! TF.ProjectId,WirelessHeadsetPowerBoard,57697265-6c65-4737-9348-656164736574,rev?*
G04 #@! TF.SameCoordinates,Original*
G04 #@! TF.FileFunction,Soldermask,Top*
G04 #@! TF.FilePolarity,Negative*
%FSLAX46Y46*%
G04 Gerber Fmt 4.6, Leading zero omitted, Abs format (unit mm)*
G04 Created by KiCad (PCBNEW (5.1.5)-2) date 2021-03-05 16:55:26*
%MOMM*%
%LPD*%
G04 APERTURE LIST*
%ADD10C,0.100000*%
G04 APERTURE END LIST*
D10*
G36*
X142891425Y-162194260D02*
G01*
X142891428Y-162194261D01*
X142891429Y-162194261D01*
X143070693Y-162248640D01*
X143070696Y-162248642D01*
X143070697Y-162248642D01*
X143235903Y-162336946D01*
X143380712Y-162455788D01*
X143499554Y-162600597D01*
X143553102Y-162700779D01*
X143587860Y-162765807D01*
X143642239Y-162945071D01*
X143642240Y-162945075D01*
X143660601Y-163131500D01*
X143642240Y-163317925D01*
X143642239Y-163317928D01*
X143642239Y-163317929D01*
X143587860Y-163497193D01*
X143587858Y-163497196D01*
X143587858Y-163497197D01*
X143499554Y-163662403D01*
X143380712Y-163807212D01*
X143235903Y-163926054D01*
X143070697Y-164014358D01*
X143070693Y-164014360D01*
X142891429Y-164068739D01*
X142891428Y-164068739D01*
X142891425Y-164068740D01*
X142751718Y-164082500D01*
X140458282Y-164082500D01*
X140318575Y-164068740D01*
X140318572Y-164068739D01*
X140318571Y-164068739D01*
X140139307Y-164014360D01*
X140139303Y-164014358D01*
X139974097Y-163926054D01*
X139829288Y-163807212D01*
X139710446Y-163662403D01*
X139622142Y-163497197D01*
X139622142Y-163497196D01*
X139622140Y-163497193D01*
X139567761Y-163317929D01*
X139567761Y-163317928D01*
X139567760Y-163317925D01*
X139549399Y-163131500D01*
X139567760Y-162945075D01*
X139567761Y-162945071D01*
X139622140Y-162765807D01*
X139656898Y-162700779D01*
X139710446Y-162600597D01*
X139829288Y-162455788D01*
X139974097Y-162336946D01*
X140139303Y-162248642D01*
X140139304Y-162248642D01*
X140139307Y-162248640D01*
X140318571Y-162194261D01*
X140318572Y-162194261D01*
X140318575Y-162194260D01*
X140458282Y-162180500D01*
X142751718Y-162180500D01*
X142891425Y-162194260D01*
G37*
G36*
X156600626Y-160760037D02*
G01*
X156770465Y-160811557D01*
X156770467Y-160811558D01*
X156926989Y-160895221D01*
X157064186Y-161007814D01*
X157147448Y-161109271D01*
X157176778Y-161145009D01*
X157260443Y-161301534D01*
X157311963Y-161471373D01*
X157325000Y-161603742D01*
X157325000Y-161992257D01*
X157311963Y-162124626D01*
X157260443Y-162294466D01*
X157176778Y-162450991D01*
X157172841Y-162455788D01*
X157064186Y-162588186D01*
X156969250Y-162666097D01*
X156926991Y-162700778D01*
X156770466Y-162784443D01*
X156600627Y-162835963D01*
X156424000Y-162853359D01*
X156247374Y-162835963D01*
X156077535Y-162784443D01*
X155921010Y-162700778D01*
X155783815Y-162588185D01*
X155671222Y-162450991D01*
X155587557Y-162294466D01*
X155536037Y-162124627D01*
X155523000Y-161992258D01*
X155523000Y-161603743D01*
X155536037Y-161471374D01*
X155587557Y-161301535D01*
X155671222Y-161145010D01*
X155671223Y-161145009D01*
X155783814Y-161007814D01*
X155885271Y-160924552D01*
X155921009Y-160895222D01*
X156077534Y-160811557D01*
X156247373Y-160760037D01*
X156424000Y-160742641D01*
X156600626Y-160760037D01*
G37*
G36*
X154682600Y-160750989D02*
G01*
X154715652Y-160761015D01*
X154746103Y-160777292D01*
X154772799Y-160799201D01*
X154794708Y-160825897D01*
X154810985Y-160856348D01*
X154821011Y-160889400D01*
X154825000Y-160929903D01*
X154825000Y-162666097D01*
X154821011Y-162706600D01*
X154810985Y-162739652D01*
X154794708Y-162770103D01*
X154772799Y-162796799D01*
X154746103Y-162818708D01*
X154715652Y-162834985D01*
X154682600Y-162845011D01*
X154642097Y-162849000D01*
X153205903Y-162849000D01*
X153165400Y-162845011D01*
X153132348Y-162834985D01*
X153101897Y-162818708D01*
X153075201Y-162796799D01*
X153053292Y-162770103D01*
X153037015Y-162739652D01*
X153026989Y-162706600D01*
X153023000Y-162666097D01*
X153023000Y-160929903D01*
X153026989Y-160889400D01*
X153037015Y-160856348D01*
X153053292Y-160825897D01*
X153075201Y-160799201D01*
X153101897Y-160777292D01*
X153132348Y-160761015D01*
X153165400Y-160750989D01*
X153205903Y-160747000D01*
X154642097Y-160747000D01*
X154682600Y-160750989D01*
G37*
G36*
X146591424Y-158294260D02*
G01*
X146591427Y-158294261D01*
X146591428Y-158294261D01*
X146770692Y-158348640D01*
X146770695Y-158348642D01*
X146770696Y-158348642D01*
X146935903Y-158436946D01*
X147080712Y-158555788D01*
X147199554Y-158700597D01*
X147287858Y-158865803D01*
X147287860Y-158865807D01*
X147287860Y-158865808D01*
X147342240Y-159045075D01*
X147356000Y-159184782D01*
X147356000Y-161478218D01*
X147342240Y-161617925D01*
X147342239Y-161617928D01*
X147342239Y-161617929D01*
X147287860Y-161797193D01*
X147287858Y-161797196D01*
X147287858Y-161797197D01*
X147199554Y-161962403D01*
X147080712Y-162107212D01*
X146935903Y-162226054D01*
X146770697Y-162314358D01*
X146770693Y-162314360D01*
X146591429Y-162368739D01*
X146591428Y-162368739D01*
X146591425Y-162368740D01*
X146405000Y-162387101D01*
X146218576Y-162368740D01*
X146218573Y-162368739D01*
X146218572Y-162368739D01*
X146039308Y-162314360D01*
X146039304Y-162314358D01*
X145874098Y-162226054D01*
X145729289Y-162107212D01*
X145610447Y-161962403D01*
X145522143Y-161797197D01*
X145522143Y-161797196D01*
X145522141Y-161797193D01*
X145467762Y-161617929D01*
X145467762Y-161617928D01*
X145467761Y-161617925D01*
X145454001Y-161478218D01*
X145454000Y-159184783D01*
X145467760Y-159045076D01*
X145467761Y-159045072D01*
X145522140Y-158865808D01*
X145522143Y-158865803D01*
X145610446Y-158700597D01*
X145729288Y-158555788D01*
X145874097Y-158436946D01*
X146039303Y-158348642D01*
X146039304Y-158348642D01*
X146039307Y-158348640D01*
X146218571Y-158294261D01*
X146218572Y-158294261D01*
X146218575Y-158294260D01*
X146405000Y-158275899D01*
X146591424Y-158294260D01*
G37*
G36*
X143856000Y-158282500D02*
G01*
X139354000Y-158282500D01*
X139354000Y-156380500D01*
X143856000Y-156380500D01*
X143856000Y-158282500D01*
G37*
G36*
X170427000Y-154451000D02*
G01*
X169425000Y-154451000D01*
X169425000Y-153349000D01*
X170427000Y-153349000D01*
X170427000Y-154451000D01*
G37*
G36*
X166861499Y-152703445D02*
G01*
X166898995Y-152714820D01*
X166933554Y-152733292D01*
X166963847Y-152758153D01*
X166988708Y-152788446D01*
X167007180Y-152823005D01*
X167018555Y-152860501D01*
X167023000Y-152905638D01*
X167023000Y-153644362D01*
X167018555Y-153689499D01*
X167007180Y-153726995D01*
X166988708Y-153761554D01*
X166963847Y-153791847D01*
X166933554Y-153816708D01*
X166898995Y-153835180D01*
X166861499Y-153846555D01*
X166816362Y-153851000D01*
X166177638Y-153851000D01*
X166132501Y-153846555D01*
X166095005Y-153835180D01*
X166060446Y-153816708D01*
X166030153Y-153791847D01*
X166005292Y-153761554D01*
X165986820Y-153726995D01*
X165975445Y-153689499D01*
X165971000Y-153644362D01*
X165971000Y-152905638D01*
X165975445Y-152860501D01*
X165986820Y-152823005D01*
X166005292Y-152788446D01*
X166030153Y-152758153D01*
X166060446Y-152733292D01*
X166095005Y-152714820D01*
X166132501Y-152703445D01*
X166177638Y-152699000D01*
X166816362Y-152699000D01*
X166861499Y-152703445D01*
G37*
G36*
X143860999Y-152640445D02*
G01*
X143898495Y-152651820D01*
X143933054Y-152670292D01*
X143963347Y-152695153D01*
X143988208Y-152725446D01*
X144006680Y-152760005D01*
X144018055Y-152797501D01*
X144022500Y-152842638D01*
X144022500Y-153481362D01*
X144018055Y-153526499D01*
X144006680Y-153563995D01*
X143988208Y-153598554D01*
X143963347Y-153628847D01*
X143933054Y-153653708D01*
X143898495Y-153672180D01*
X143860999Y-153683555D01*
X143815862Y-153688000D01*
X143077138Y-153688000D01*
X143032001Y-153683555D01*
X142994505Y-153672180D01*
X142959946Y-153653708D01*
X142929653Y-153628847D01*
X142904792Y-153598554D01*
X142886320Y-153563995D01*
X142874945Y-153526499D01*
X142870500Y-153481362D01*
X142870500Y-152842638D01*
X142874945Y-152797501D01*
X142886320Y-152760005D01*
X142904792Y-152725446D01*
X142929653Y-152695153D01*
X142959946Y-152670292D01*
X142994505Y-152651820D01*
X143032001Y-152640445D01*
X143077138Y-152636000D01*
X143815862Y-152636000D01*
X143860999Y-152640445D01*
G37*
G36*
X137941499Y-152640445D02*
G01*
X137978995Y-152651820D01*
X138013554Y-152670292D01*
X138043847Y-152695153D01*
X138068708Y-152725446D01*
X138087180Y-152760005D01*
X138098555Y-152797501D01*
X138103000Y-152842638D01*
X138103000Y-153481362D01*
X138098555Y-153526499D01*
X138087180Y-153563995D01*
X138068708Y-153598554D01*
X138043847Y-153628847D01*
X138013554Y-153653708D01*
X137978995Y-153672180D01*
X137941499Y-153683555D01*
X137896362Y-153688000D01*
X137157638Y-153688000D01*
X137112501Y-153683555D01*
X137075005Y-153672180D01*
X137040446Y-153653708D01*
X137010153Y-153628847D01*
X136985292Y-153598554D01*
X136966820Y-153563995D01*
X136955445Y-153526499D01*
X136951000Y-153481362D01*
X136951000Y-152842638D01*
X136955445Y-152797501D01*
X136966820Y-152760005D01*
X136985292Y-152725446D01*
X137010153Y-152695153D01*
X137040446Y-152670292D01*
X137075005Y-152651820D01*
X137112501Y-152640445D01*
X137157638Y-152636000D01*
X137896362Y-152636000D01*
X137941499Y-152640445D01*
G37*
G36*
X136191499Y-152640445D02*
G01*
X136228995Y-152651820D01*
X136263554Y-152670292D01*
X136293847Y-152695153D01*
X136318708Y-152725446D01*
X136337180Y-152760005D01*
X136348555Y-152797501D01*
X136353000Y-152842638D01*
X136353000Y-153481362D01*
X136348555Y-153526499D01*
X136337180Y-153563995D01*
X136318708Y-153598554D01*
X136293847Y-153628847D01*
X136263554Y-153653708D01*
X136228995Y-153672180D01*
X136191499Y-153683555D01*
X136146362Y-153688000D01*
X135407638Y-153688000D01*
X135362501Y-153683555D01*
X135325005Y-153672180D01*
X135290446Y-153653708D01*
X135260153Y-153628847D01*
X135235292Y-153598554D01*
X135216820Y-153563995D01*
X135205445Y-153526499D01*
X135201000Y-153481362D01*
X135201000Y-152842638D01*
X135205445Y-152797501D01*
X135216820Y-152760005D01*
X135235292Y-152725446D01*
X135260153Y-152695153D01*
X135290446Y-152670292D01*
X135325005Y-152651820D01*
X135362501Y-152640445D01*
X135407638Y-152636000D01*
X136146362Y-152636000D01*
X136191499Y-152640445D01*
G37*
G36*
X145610999Y-152640445D02*
G01*
X145648495Y-152651820D01*
X145683054Y-152670292D01*
X145713347Y-152695153D01*
X145738208Y-152725446D01*
X145756680Y-152760005D01*
X145768055Y-152797501D01*
X145772500Y-152842638D01*
X145772500Y-153481362D01*
X145768055Y-153526499D01*
X145756680Y-153563995D01*
X145738208Y-153598554D01*
X145713347Y-153628847D01*
X145683054Y-153653708D01*
X145648495Y-153672180D01*
X145610999Y-153683555D01*
X145565862Y-153688000D01*
X144827138Y-153688000D01*
X144782001Y-153683555D01*
X144744505Y-153672180D01*
X144709946Y-153653708D01*
X144679653Y-153628847D01*
X144654792Y-153598554D01*
X144636320Y-153563995D01*
X144624945Y-153526499D01*
X144620500Y-153481362D01*
X144620500Y-152842638D01*
X144624945Y-152797501D01*
X144636320Y-152760005D01*
X144654792Y-152725446D01*
X144679653Y-152695153D01*
X144709946Y-152670292D01*
X144744505Y-152651820D01*
X144782001Y-152640445D01*
X144827138Y-152636000D01*
X145565862Y-152636000D01*
X145610999Y-152640445D01*
G37*
G36*
X169927000Y-153051000D02*
G01*
X169025000Y-153051000D01*
X169025000Y-152549000D01*
X169927000Y-152549000D01*
X169927000Y-153051000D01*
G37*
G36*
X169927000Y-152251000D02*
G01*
X169025000Y-152251000D01*
X169025000Y-151749000D01*
X169927000Y-151749000D01*
X169927000Y-152251000D01*
G37*
G36*
X166861499Y-150953445D02*
G01*
X166898995Y-150964820D01*
X166933554Y-150983292D01*
X166963847Y-151008153D01*
X166988708Y-151038446D01*
X167007180Y-151073005D01*
X167018555Y-151110501D01*
X167023000Y-151155638D01*
X167023000Y-151894362D01*
X167018555Y-151939499D01*
X167007180Y-151976995D01*
X166988708Y-152011554D01*
X166963847Y-152041847D01*
X166933554Y-152066708D01*
X166898995Y-152085180D01*
X166861499Y-152096555D01*
X166816362Y-152101000D01*
X166177638Y-152101000D01*
X166132501Y-152096555D01*
X166095005Y-152085180D01*
X166060446Y-152066708D01*
X166030153Y-152041847D01*
X166005292Y-152011554D01*
X165986820Y-151976995D01*
X165975445Y-151939499D01*
X165971000Y-151894362D01*
X165971000Y-151155638D01*
X165975445Y-151110501D01*
X165986820Y-151073005D01*
X166005292Y-151038446D01*
X166030153Y-151008153D01*
X166060446Y-150983292D01*
X166095005Y-150964820D01*
X166132501Y-150953445D01*
X166177638Y-150949000D01*
X166816362Y-150949000D01*
X166861499Y-150953445D01*
G37*
G36*
X136191499Y-150862445D02*
G01*
X136228995Y-150873820D01*
X136263554Y-150892292D01*
X136293847Y-150917153D01*
X136318708Y-150947446D01*
X136337180Y-150982005D01*
X136348555Y-151019501D01*
X136353000Y-151064638D01*
X136353000Y-151703362D01*
X136348555Y-151748499D01*
X136337180Y-151785995D01*
X136318708Y-151820554D01*
X136293847Y-151850847D01*
X136263554Y-151875708D01*
X136228995Y-151894180D01*
X136191499Y-151905555D01*
X136146362Y-151910000D01*
X135407638Y-151910000D01*
X135362501Y-151905555D01*
X135325005Y-151894180D01*
X135290446Y-151875708D01*
X135260153Y-151850847D01*
X135235292Y-151820554D01*
X135216820Y-151785995D01*
X135205445Y-151748499D01*
X135201000Y-151703362D01*
X135201000Y-151064638D01*
X135205445Y-151019501D01*
X135216820Y-150982005D01*
X135235292Y-150947446D01*
X135260153Y-150917153D01*
X135290446Y-150892292D01*
X135325005Y-150873820D01*
X135362501Y-150862445D01*
X135407638Y-150858000D01*
X136146362Y-150858000D01*
X136191499Y-150862445D01*
G37*
G36*
X137941499Y-150862445D02*
G01*
X137978995Y-150873820D01*
X138013554Y-150892292D01*
X138043847Y-150917153D01*
X138068708Y-150947446D01*
X138087180Y-150982005D01*
X138098555Y-151019501D01*
X138103000Y-151064638D01*
X138103000Y-151703362D01*
X138098555Y-151748499D01*
X138087180Y-151785995D01*
X138068708Y-151820554D01*
X138043847Y-151850847D01*
X138013554Y-151875708D01*
X137978995Y-151894180D01*
X137941499Y-151905555D01*
X137896362Y-151910000D01*
X137157638Y-151910000D01*
X137112501Y-151905555D01*
X137075005Y-151894180D01*
X137040446Y-151875708D01*
X137010153Y-151850847D01*
X136985292Y-151820554D01*
X136966820Y-151785995D01*
X136955445Y-151748499D01*
X136951000Y-151703362D01*
X136951000Y-151064638D01*
X136955445Y-151019501D01*
X136966820Y-150982005D01*
X136985292Y-150947446D01*
X137010153Y-150917153D01*
X137040446Y-150892292D01*
X137075005Y-150873820D01*
X137112501Y-150862445D01*
X137157638Y-150858000D01*
X137896362Y-150858000D01*
X137941499Y-150862445D01*
G37*
G36*
X145624999Y-150862445D02*
G01*
X145662495Y-150873820D01*
X145697054Y-150892292D01*
X145727347Y-150917153D01*
X145752208Y-150947446D01*
X145770680Y-150982005D01*
X145782055Y-151019501D01*
X145786500Y-151064638D01*
X145786500Y-151703362D01*
X145782055Y-151748499D01*
X145770680Y-151785995D01*
X145752208Y-151820554D01*
X145727347Y-151850847D01*
X145697054Y-151875708D01*
X145662495Y-151894180D01*
X145624999Y-151905555D01*
X145579862Y-151910000D01*
X144841138Y-151910000D01*
X144796001Y-151905555D01*
X144758505Y-151894180D01*
X144723946Y-151875708D01*
X144693653Y-151850847D01*
X144668792Y-151820554D01*
X144650320Y-151785995D01*
X144638945Y-151748499D01*
X144634500Y-151703362D01*
X144634500Y-151064638D01*
X144638945Y-151019501D01*
X144650320Y-150982005D01*
X144668792Y-150947446D01*
X144693653Y-150917153D01*
X144723946Y-150892292D01*
X144758505Y-150873820D01*
X144796001Y-150862445D01*
X144841138Y-150858000D01*
X145579862Y-150858000D01*
X145624999Y-150862445D01*
G37*
G36*
X143874999Y-150862445D02*
G01*
X143912495Y-150873820D01*
X143947054Y-150892292D01*
X143977347Y-150917153D01*
X144002208Y-150947446D01*
X144020680Y-150982005D01*
X144032055Y-151019501D01*
X144036500Y-151064638D01*
X144036500Y-151703362D01*
X144032055Y-151748499D01*
X144020680Y-151785995D01*
X144002208Y-151820554D01*
X143977347Y-151850847D01*
X143947054Y-151875708D01*
X143912495Y-151894180D01*
X143874999Y-151905555D01*
X143829862Y-151910000D01*
X143091138Y-151910000D01*
X143046001Y-151905555D01*
X143008505Y-151894180D01*
X142973946Y-151875708D01*
X142943653Y-151850847D01*
X142918792Y-151820554D01*
X142900320Y-151785995D01*
X142888945Y-151748499D01*
X142884500Y-151703362D01*
X142884500Y-151064638D01*
X142888945Y-151019501D01*
X142900320Y-150982005D01*
X142918792Y-150947446D01*
X142943653Y-150917153D01*
X142973946Y-150892292D01*
X143008505Y-150873820D01*
X143046001Y-150862445D01*
X143091138Y-150858000D01*
X143829862Y-150858000D01*
X143874999Y-150862445D01*
G37*
G36*
X170427000Y-151451000D02*
G01*
X169425000Y-151451000D01*
X169425000Y-150349000D01*
X170427000Y-150349000D01*
X170427000Y-151451000D01*
G37*
G36*
X147861499Y-147623945D02*
G01*
X147898995Y-147635320D01*
X147933554Y-147653792D01*
X147963847Y-147678653D01*
X147988708Y-147708946D01*
X148007180Y-147743505D01*
X148018555Y-147781001D01*
X148023000Y-147826138D01*
X148023000Y-148464862D01*
X148018555Y-148509999D01*
X148007180Y-148547495D01*
X147988708Y-148582054D01*
X147963847Y-148612347D01*
X147933554Y-148637208D01*
X147898995Y-148655680D01*
X147861499Y-148667055D01*
X147816362Y-148671500D01*
X147077638Y-148671500D01*
X147032501Y-148667055D01*
X146995005Y-148655680D01*
X146960446Y-148637208D01*
X146930153Y-148612347D01*
X146905292Y-148582054D01*
X146886820Y-148547495D01*
X146875445Y-148509999D01*
X146871000Y-148464862D01*
X146871000Y-147826138D01*
X146875445Y-147781001D01*
X146886820Y-147743505D01*
X146905292Y-147708946D01*
X146930153Y-147678653D01*
X146960446Y-147653792D01*
X146995005Y-147635320D01*
X147032501Y-147623945D01*
X147077638Y-147619500D01*
X147816362Y-147619500D01*
X147861499Y-147623945D01*
G37*
G36*
X146111499Y-147623945D02*
G01*
X146148995Y-147635320D01*
X146183554Y-147653792D01*
X146213847Y-147678653D01*
X146238708Y-147708946D01*
X146257180Y-147743505D01*
X146268555Y-147781001D01*
X146273000Y-147826138D01*
X146273000Y-148464862D01*
X146268555Y-148509999D01*
X146257180Y-148547495D01*
X146238708Y-148582054D01*
X146213847Y-148612347D01*
X146183554Y-148637208D01*
X146148995Y-148655680D01*
X146111499Y-148667055D01*
X146066362Y-148671500D01*
X145327638Y-148671500D01*
X145282501Y-148667055D01*
X145245005Y-148655680D01*
X145210446Y-148637208D01*
X145180153Y-148612347D01*
X145155292Y-148582054D01*
X145136820Y-148547495D01*
X145125445Y-148509999D01*
X145121000Y-148464862D01*
X145121000Y-147826138D01*
X145125445Y-147781001D01*
X145136820Y-147743505D01*
X145155292Y-147708946D01*
X145180153Y-147678653D01*
X145210446Y-147653792D01*
X145245005Y-147635320D01*
X145282501Y-147623945D01*
X145327638Y-147619500D01*
X146066362Y-147619500D01*
X146111499Y-147623945D01*
G37*
G36*
X146033499Y-145654945D02*
G01*
X146070995Y-145666320D01*
X146105554Y-145684792D01*
X146135847Y-145709653D01*
X146160708Y-145739946D01*
X146179180Y-145774505D01*
X146190555Y-145812001D01*
X146195000Y-145857138D01*
X146195000Y-146595862D01*
X146190555Y-146640999D01*
X146179180Y-146678495D01*
X146160708Y-146713054D01*
X146135847Y-146743347D01*
X146105554Y-146768208D01*
X146070995Y-146786680D01*
X146033499Y-146798055D01*
X145988362Y-146802500D01*
X145349638Y-146802500D01*
X145304501Y-146798055D01*
X145267005Y-146786680D01*
X145232446Y-146768208D01*
X145202153Y-146743347D01*
X145177292Y-146713054D01*
X145158820Y-146678495D01*
X145147445Y-146640999D01*
X145143000Y-146595862D01*
X145143000Y-145857138D01*
X145147445Y-145812001D01*
X145158820Y-145774505D01*
X145177292Y-145739946D01*
X145202153Y-145709653D01*
X145232446Y-145684792D01*
X145267005Y-145666320D01*
X145304501Y-145654945D01*
X145349638Y-145650500D01*
X145988362Y-145650500D01*
X146033499Y-145654945D01*
G37*
G36*
X149625499Y-145718945D02*
G01*
X149662995Y-145730320D01*
X149697554Y-145748792D01*
X149727847Y-145773653D01*
X149752708Y-145803946D01*
X149771180Y-145838505D01*
X149782555Y-145876001D01*
X149787000Y-145921138D01*
X149787000Y-146559862D01*
X149782555Y-146604999D01*
X149771180Y-146642495D01*
X149752708Y-146677054D01*
X149727847Y-146707347D01*
X149697554Y-146732208D01*
X149662995Y-146750680D01*
X149625499Y-146762055D01*
X149580362Y-146766500D01*
X148841638Y-146766500D01*
X148796501Y-146762055D01*
X148759005Y-146750680D01*
X148724446Y-146732208D01*
X148694153Y-146707347D01*
X148669292Y-146677054D01*
X148650820Y-146642495D01*
X148639445Y-146604999D01*
X148635000Y-146559862D01*
X148635000Y-145921138D01*
X148639445Y-145876001D01*
X148650820Y-145838505D01*
X148669292Y-145803946D01*
X148694153Y-145773653D01*
X148724446Y-145748792D01*
X148759005Y-145730320D01*
X148796501Y-145718945D01*
X148841638Y-145714500D01*
X149580362Y-145714500D01*
X149625499Y-145718945D01*
G37*
G36*
X147875499Y-145718945D02*
G01*
X147912995Y-145730320D01*
X147947554Y-145748792D01*
X147977847Y-145773653D01*
X148002708Y-145803946D01*
X148021180Y-145838505D01*
X148032555Y-145876001D01*
X148037000Y-145921138D01*
X148037000Y-146559862D01*
X148032555Y-146604999D01*
X148021180Y-146642495D01*
X148002708Y-146677054D01*
X147977847Y-146707347D01*
X147947554Y-146732208D01*
X147912995Y-146750680D01*
X147875499Y-146762055D01*
X147830362Y-146766500D01*
X147091638Y-146766500D01*
X147046501Y-146762055D01*
X147009005Y-146750680D01*
X146974446Y-146732208D01*
X146944153Y-146707347D01*
X146919292Y-146677054D01*
X146900820Y-146642495D01*
X146889445Y-146604999D01*
X146885000Y-146559862D01*
X146885000Y-145921138D01*
X146889445Y-145876001D01*
X146900820Y-145838505D01*
X146919292Y-145803946D01*
X146944153Y-145773653D01*
X146974446Y-145748792D01*
X147009005Y-145730320D01*
X147046501Y-145718945D01*
X147091638Y-145714500D01*
X147830362Y-145714500D01*
X147875499Y-145718945D01*
G37*
G36*
X146033499Y-143904945D02*
G01*
X146070995Y-143916320D01*
X146105554Y-143934792D01*
X146135847Y-143959653D01*
X146160708Y-143989946D01*
X146179180Y-144024505D01*
X146190555Y-144062001D01*
X146195000Y-144107138D01*
X146195000Y-144845862D01*
X146190555Y-144890999D01*
X146179180Y-144928495D01*
X146160708Y-144963054D01*
X146135847Y-144993347D01*
X146105554Y-145018208D01*
X146070995Y-145036680D01*
X146033499Y-145048055D01*
X145988362Y-145052500D01*
X145349638Y-145052500D01*
X145304501Y-145048055D01*
X145267005Y-145036680D01*
X145232446Y-145018208D01*
X145202153Y-144993347D01*
X145177292Y-144963054D01*
X145158820Y-144928495D01*
X145147445Y-144890999D01*
X145143000Y-144845862D01*
X145143000Y-144107138D01*
X145147445Y-144062001D01*
X145158820Y-144024505D01*
X145177292Y-143989946D01*
X145202153Y-143959653D01*
X145232446Y-143934792D01*
X145267005Y-143916320D01*
X145304501Y-143904945D01*
X145349638Y-143900500D01*
X145988362Y-143900500D01*
X146033499Y-143904945D01*
G37*
G36*
X158642499Y-144004445D02*
G01*
X158679995Y-144015820D01*
X158714554Y-144034292D01*
X158744847Y-144059153D01*
X158769708Y-144089446D01*
X158788180Y-144124005D01*
X158799555Y-144161501D01*
X158804000Y-144206638D01*
X158804000Y-144845362D01*
X158799555Y-144890499D01*
X158788180Y-144927995D01*
X158769708Y-144962554D01*
X158744847Y-144992847D01*
X158714554Y-145017708D01*
X158679995Y-145036180D01*
X158642499Y-145047555D01*
X158597362Y-145052000D01*
X157858638Y-145052000D01*
X157813501Y-145047555D01*
X157776005Y-145036180D01*
X157741446Y-145017708D01*
X157711153Y-144992847D01*
X157686292Y-144962554D01*
X157667820Y-144927995D01*
X157656445Y-144890499D01*
X157652000Y-144845362D01*
X157652000Y-144206638D01*
X157656445Y-144161501D01*
X157667820Y-144124005D01*
X157686292Y-144089446D01*
X157711153Y-144059153D01*
X157741446Y-144034292D01*
X157776005Y-144015820D01*
X157813501Y-144004445D01*
X157858638Y-144000000D01*
X158597362Y-144000000D01*
X158642499Y-144004445D01*
G37*
G36*
X156892499Y-144004445D02*
G01*
X156929995Y-144015820D01*
X156964554Y-144034292D01*
X156994847Y-144059153D01*
X157019708Y-144089446D01*
X157038180Y-144124005D01*
X157049555Y-144161501D01*
X157054000Y-144206638D01*
X157054000Y-144845362D01*
X157049555Y-144890499D01*
X157038180Y-144927995D01*
X157019708Y-144962554D01*
X156994847Y-144992847D01*
X156964554Y-145017708D01*
X156929995Y-145036180D01*
X156892499Y-145047555D01*
X156847362Y-145052000D01*
X156108638Y-145052000D01*
X156063501Y-145047555D01*
X156026005Y-145036180D01*
X155991446Y-145017708D01*
X155961153Y-144992847D01*
X155936292Y-144962554D01*
X155917820Y-144927995D01*
X155906445Y-144890499D01*
X155902000Y-144845362D01*
X155902000Y-144206638D01*
X155906445Y-144161501D01*
X155917820Y-144124005D01*
X155936292Y-144089446D01*
X155961153Y-144059153D01*
X155991446Y-144034292D01*
X156026005Y-144015820D01*
X156063501Y-144004445D01*
X156108638Y-144000000D01*
X156847362Y-144000000D01*
X156892499Y-144004445D01*
G37*
G36*
X149639499Y-143940945D02*
G01*
X149676995Y-143952320D01*
X149711554Y-143970792D01*
X149741847Y-143995653D01*
X149766708Y-144025946D01*
X149785180Y-144060505D01*
X149796555Y-144098001D01*
X149801000Y-144143138D01*
X149801000Y-144781862D01*
X149796555Y-144826999D01*
X149785180Y-144864495D01*
X149766708Y-144899054D01*
X149741847Y-144929347D01*
X149711554Y-144954208D01*
X149676995Y-144972680D01*
X149639499Y-144984055D01*
X149594362Y-144988500D01*
X148855638Y-144988500D01*
X148810501Y-144984055D01*
X148773005Y-144972680D01*
X148738446Y-144954208D01*
X148708153Y-144929347D01*
X148683292Y-144899054D01*
X148664820Y-144864495D01*
X148653445Y-144826999D01*
X148649000Y-144781862D01*
X148649000Y-144143138D01*
X148653445Y-144098001D01*
X148664820Y-144060505D01*
X148683292Y-144025946D01*
X148708153Y-143995653D01*
X148738446Y-143970792D01*
X148773005Y-143952320D01*
X148810501Y-143940945D01*
X148855638Y-143936500D01*
X149594362Y-143936500D01*
X149639499Y-143940945D01*
G37*
G36*
X147889499Y-143940945D02*
G01*
X147926995Y-143952320D01*
X147961554Y-143970792D01*
X147991847Y-143995653D01*
X148016708Y-144025946D01*
X148035180Y-144060505D01*
X148046555Y-144098001D01*
X148051000Y-144143138D01*
X148051000Y-144781862D01*
X148046555Y-144826999D01*
X148035180Y-144864495D01*
X148016708Y-144899054D01*
X147991847Y-144929347D01*
X147961554Y-144954208D01*
X147926995Y-144972680D01*
X147889499Y-144984055D01*
X147844362Y-144988500D01*
X147105638Y-144988500D01*
X147060501Y-144984055D01*
X147023005Y-144972680D01*
X146988446Y-144954208D01*
X146958153Y-144929347D01*
X146933292Y-144899054D01*
X146914820Y-144864495D01*
X146903445Y-144826999D01*
X146899000Y-144781862D01*
X146899000Y-144143138D01*
X146903445Y-144098001D01*
X146914820Y-144060505D01*
X146933292Y-144025946D01*
X146958153Y-143995653D01*
X146988446Y-143970792D01*
X147023005Y-143952320D01*
X147060501Y-143940945D01*
X147105638Y-143936500D01*
X147844362Y-143936500D01*
X147889499Y-143940945D01*
G37*
G36*
X158628499Y-142289945D02*
G01*
X158665995Y-142301320D01*
X158700554Y-142319792D01*
X158730847Y-142344653D01*
X158755708Y-142374946D01*
X158774180Y-142409505D01*
X158785555Y-142447001D01*
X158790000Y-142492138D01*
X158790000Y-143130862D01*
X158785555Y-143175999D01*
X158774180Y-143213495D01*
X158755708Y-143248054D01*
X158730847Y-143278347D01*
X158700554Y-143303208D01*
X158665995Y-143321680D01*
X158628499Y-143333055D01*
X158583362Y-143337500D01*
X157844638Y-143337500D01*
X157799501Y-143333055D01*
X157762005Y-143321680D01*
X157727446Y-143303208D01*
X157697153Y-143278347D01*
X157672292Y-143248054D01*
X157653820Y-143213495D01*
X157642445Y-143175999D01*
X157638000Y-143130862D01*
X157638000Y-142492138D01*
X157642445Y-142447001D01*
X157653820Y-142409505D01*
X157672292Y-142374946D01*
X157697153Y-142344653D01*
X157727446Y-142319792D01*
X157762005Y-142301320D01*
X157799501Y-142289945D01*
X157844638Y-142285500D01*
X158583362Y-142285500D01*
X158628499Y-142289945D01*
G37*
G36*
X156878499Y-142289945D02*
G01*
X156915995Y-142301320D01*
X156950554Y-142319792D01*
X156980847Y-142344653D01*
X157005708Y-142374946D01*
X157024180Y-142409505D01*
X157035555Y-142447001D01*
X157040000Y-142492138D01*
X157040000Y-143130862D01*
X157035555Y-143175999D01*
X157024180Y-143213495D01*
X157005708Y-143248054D01*
X156980847Y-143278347D01*
X156950554Y-143303208D01*
X156915995Y-143321680D01*
X156878499Y-143333055D01*
X156833362Y-143337500D01*
X156094638Y-143337500D01*
X156049501Y-143333055D01*
X156012005Y-143321680D01*
X155977446Y-143303208D01*
X155947153Y-143278347D01*
X155922292Y-143248054D01*
X155903820Y-143213495D01*
X155892445Y-143175999D01*
X155888000Y-143130862D01*
X155888000Y-142492138D01*
X155892445Y-142447001D01*
X155903820Y-142409505D01*
X155922292Y-142374946D01*
X155947153Y-142344653D01*
X155977446Y-142319792D01*
X156012005Y-142301320D01*
X156049501Y-142289945D01*
X156094638Y-142285500D01*
X156833362Y-142285500D01*
X156878499Y-142289945D01*
G37*
G36*
X141257499Y-140956445D02*
G01*
X141294995Y-140967820D01*
X141329554Y-140986292D01*
X141359847Y-141011153D01*
X141384708Y-141041446D01*
X141403180Y-141076005D01*
X141414555Y-141113501D01*
X141419000Y-141158638D01*
X141419000Y-141797362D01*
X141414555Y-141842499D01*
X141403180Y-141879995D01*
X141384708Y-141914554D01*
X141359847Y-141944847D01*
X141329554Y-141969708D01*
X141294995Y-141988180D01*
X141257499Y-141999555D01*
X141212362Y-142004000D01*
X140473638Y-142004000D01*
X140428501Y-141999555D01*
X140391005Y-141988180D01*
X140356446Y-141969708D01*
X140326153Y-141944847D01*
X140301292Y-141914554D01*
X140282820Y-141879995D01*
X140271445Y-141842499D01*
X140267000Y-141797362D01*
X140267000Y-141158638D01*
X140271445Y-141113501D01*
X140282820Y-141076005D01*
X140301292Y-141041446D01*
X140326153Y-141011153D01*
X140356446Y-140986292D01*
X140391005Y-140967820D01*
X140428501Y-140956445D01*
X140473638Y-140952000D01*
X141212362Y-140952000D01*
X141257499Y-140956445D01*
G37*
G36*
X139507499Y-140956445D02*
G01*
X139544995Y-140967820D01*
X139579554Y-140986292D01*
X139609847Y-141011153D01*
X139634708Y-141041446D01*
X139653180Y-141076005D01*
X139664555Y-141113501D01*
X139669000Y-141158638D01*
X139669000Y-141797362D01*
X139664555Y-141842499D01*
X139653180Y-141879995D01*
X139634708Y-141914554D01*
X139609847Y-141944847D01*
X139579554Y-141969708D01*
X139544995Y-141988180D01*
X139507499Y-141999555D01*
X139462362Y-142004000D01*
X138723638Y-142004000D01*
X138678501Y-141999555D01*
X138641005Y-141988180D01*
X138606446Y-141969708D01*
X138576153Y-141944847D01*
X138551292Y-141914554D01*
X138532820Y-141879995D01*
X138521445Y-141842499D01*
X138517000Y-141797362D01*
X138517000Y-141158638D01*
X138521445Y-141113501D01*
X138532820Y-141076005D01*
X138551292Y-141041446D01*
X138576153Y-141011153D01*
X138606446Y-140986292D01*
X138641005Y-140967820D01*
X138678501Y-140956445D01*
X138723638Y-140952000D01*
X139462362Y-140952000D01*
X139507499Y-140956445D01*
G37*
G36*
X156892499Y-140575445D02*
G01*
X156929995Y-140586820D01*
X156964554Y-140605292D01*
X156994847Y-140630153D01*
X157019708Y-140660446D01*
X157038180Y-140695005D01*
X157049555Y-140732501D01*
X157054000Y-140777638D01*
X157054000Y-141416362D01*
X157049555Y-141461499D01*
X157038180Y-141498995D01*
X157019708Y-141533554D01*
X156994847Y-141563847D01*
X156964554Y-141588708D01*
X156929995Y-141607180D01*
X156892499Y-141618555D01*
X156847362Y-141623000D01*
X156108638Y-141623000D01*
X156063501Y-141618555D01*
X156026005Y-141607180D01*
X155991446Y-141588708D01*
X155961153Y-141563847D01*
X155936292Y-141533554D01*
X155917820Y-141498995D01*
X155906445Y-141461499D01*
X155902000Y-141416362D01*
X155902000Y-140777638D01*
X155906445Y-140732501D01*
X155917820Y-140695005D01*
X155936292Y-140660446D01*
X155961153Y-140630153D01*
X155991446Y-140605292D01*
X156026005Y-140586820D01*
X156063501Y-140575445D01*
X156108638Y-140571000D01*
X156847362Y-140571000D01*
X156892499Y-140575445D01*
G37*
G36*
X158642499Y-140575445D02*
G01*
X158679995Y-140586820D01*
X158714554Y-140605292D01*
X158744847Y-140630153D01*
X158769708Y-140660446D01*
X158788180Y-140695005D01*
X158799555Y-140732501D01*
X158804000Y-140777638D01*
X158804000Y-141416362D01*
X158799555Y-141461499D01*
X158788180Y-141498995D01*
X158769708Y-141533554D01*
X158744847Y-141563847D01*
X158714554Y-141588708D01*
X158679995Y-141607180D01*
X158642499Y-141618555D01*
X158597362Y-141623000D01*
X157858638Y-141623000D01*
X157813501Y-141618555D01*
X157776005Y-141607180D01*
X157741446Y-141588708D01*
X157711153Y-141563847D01*
X157686292Y-141533554D01*
X157667820Y-141498995D01*
X157656445Y-141461499D01*
X157652000Y-141416362D01*
X157652000Y-140777638D01*
X157656445Y-140732501D01*
X157667820Y-140695005D01*
X157686292Y-140660446D01*
X157711153Y-140630153D01*
X157741446Y-140605292D01*
X157776005Y-140586820D01*
X157813501Y-140575445D01*
X157858638Y-140571000D01*
X158597362Y-140571000D01*
X158642499Y-140575445D01*
G37*
G36*
X151410000Y-133834001D02*
G01*
X151412402Y-133858387D01*
X151419515Y-133881836D01*
X151431066Y-133903447D01*
X151446611Y-133922389D01*
X151465553Y-133937934D01*
X151487164Y-133949485D01*
X151510613Y-133956598D01*
X151534999Y-133959000D01*
X154030000Y-133959000D01*
X154030000Y-137821000D01*
X151534999Y-137821000D01*
X151510613Y-137823402D01*
X151487164Y-137830515D01*
X151465553Y-137842066D01*
X151446611Y-137857611D01*
X151431066Y-137876553D01*
X151419515Y-137898164D01*
X151412402Y-137921613D01*
X151410000Y-137945999D01*
X151410000Y-140441000D01*
X147548000Y-140441000D01*
X147548000Y-137945999D01*
X147545598Y-137921613D01*
X147538485Y-137898164D01*
X147526934Y-137876553D01*
X147511389Y-137857611D01*
X147492447Y-137842066D01*
X147470836Y-137830515D01*
X147447387Y-137823402D01*
X147423001Y-137821000D01*
X144928000Y-137821000D01*
X144928000Y-134065999D01*
X147530000Y-134065999D01*
X147530000Y-137714001D01*
X147532402Y-137738387D01*
X147539515Y-137761836D01*
X147551066Y-137783447D01*
X147566611Y-137802389D01*
X147585553Y-137817934D01*
X147607164Y-137829485D01*
X147630613Y-137836598D01*
X147654999Y-137839000D01*
X151303001Y-137839000D01*
X151327387Y-137836598D01*
X151350836Y-137829485D01*
X151372447Y-137817934D01*
X151391389Y-137802389D01*
X151406934Y-137783447D01*
X151418485Y-137761836D01*
X151425598Y-137738387D01*
X151428000Y-137714001D01*
X151428000Y-134065999D01*
X151425598Y-134041613D01*
X151418485Y-134018164D01*
X151406934Y-133996553D01*
X151391389Y-133977611D01*
X151372447Y-133962066D01*
X151350836Y-133950515D01*
X151327387Y-133943402D01*
X151303001Y-133941000D01*
X147654999Y-133941000D01*
X147630613Y-133943402D01*
X147607164Y-133950515D01*
X147585553Y-133962066D01*
X147566611Y-133977611D01*
X147551066Y-133996553D01*
X147539515Y-134018164D01*
X147532402Y-134041613D01*
X147530000Y-134065999D01*
X144928000Y-134065999D01*
X144928000Y-133959000D01*
X147423001Y-133959000D01*
X147447387Y-133956598D01*
X147470836Y-133949485D01*
X147492447Y-133937934D01*
X147511389Y-133922389D01*
X147526934Y-133903447D01*
X147538485Y-133881836D01*
X147545598Y-133858387D01*
X147548000Y-133834001D01*
X147548000Y-131339000D01*
X151410000Y-131339000D01*
X151410000Y-133834001D01*
G37*
G36*
X151030000Y-137441000D02*
G01*
X147928000Y-137441000D01*
X147928000Y-134339000D01*
X151030000Y-134339000D01*
X151030000Y-137441000D01*
G37*
G36*
X141243499Y-139178445D02*
G01*
X141280995Y-139189820D01*
X141315554Y-139208292D01*
X141345847Y-139233153D01*
X141370708Y-139263446D01*
X141389180Y-139298005D01*
X141400555Y-139335501D01*
X141405000Y-139380638D01*
X141405000Y-140019362D01*
X141400555Y-140064499D01*
X141389180Y-140101995D01*
X141370708Y-140136554D01*
X141345847Y-140166847D01*
X141315554Y-140191708D01*
X141280995Y-140210180D01*
X141243499Y-140221555D01*
X141198362Y-140226000D01*
X140459638Y-140226000D01*
X140414501Y-140221555D01*
X140377005Y-140210180D01*
X140342446Y-140191708D01*
X140312153Y-140166847D01*
X140287292Y-140136554D01*
X140268820Y-140101995D01*
X140257445Y-140064499D01*
X140253000Y-140019362D01*
X140253000Y-139380638D01*
X140257445Y-139335501D01*
X140268820Y-139298005D01*
X140287292Y-139263446D01*
X140312153Y-139233153D01*
X140342446Y-139208292D01*
X140377005Y-139189820D01*
X140414501Y-139178445D01*
X140459638Y-139174000D01*
X141198362Y-139174000D01*
X141243499Y-139178445D01*
G37*
G36*
X139493499Y-139178445D02*
G01*
X139530995Y-139189820D01*
X139565554Y-139208292D01*
X139595847Y-139233153D01*
X139620708Y-139263446D01*
X139639180Y-139298005D01*
X139650555Y-139335501D01*
X139655000Y-139380638D01*
X139655000Y-140019362D01*
X139650555Y-140064499D01*
X139639180Y-140101995D01*
X139620708Y-140136554D01*
X139595847Y-140166847D01*
X139565554Y-140191708D01*
X139530995Y-140210180D01*
X139493499Y-140221555D01*
X139448362Y-140226000D01*
X138709638Y-140226000D01*
X138664501Y-140221555D01*
X138627005Y-140210180D01*
X138592446Y-140191708D01*
X138562153Y-140166847D01*
X138537292Y-140136554D01*
X138518820Y-140101995D01*
X138507445Y-140064499D01*
X138503000Y-140019362D01*
X138503000Y-139380638D01*
X138507445Y-139335501D01*
X138518820Y-139298005D01*
X138537292Y-139263446D01*
X138562153Y-139233153D01*
X138592446Y-139208292D01*
X138627005Y-139189820D01*
X138664501Y-139178445D01*
X138709638Y-139174000D01*
X139448362Y-139174000D01*
X139493499Y-139178445D01*
G37*
G36*
X158656499Y-138860945D02*
G01*
X158693995Y-138872320D01*
X158728554Y-138890792D01*
X158758847Y-138915653D01*
X158783708Y-138945946D01*
X158802180Y-138980505D01*
X158813555Y-139018001D01*
X158818000Y-139063138D01*
X158818000Y-139701862D01*
X158813555Y-139746999D01*
X158802180Y-139784495D01*
X158783708Y-139819054D01*
X158758847Y-139849347D01*
X158728554Y-139874208D01*
X158693995Y-139892680D01*
X158656499Y-139904055D01*
X158611362Y-139908500D01*
X157872638Y-139908500D01*
X157827501Y-139904055D01*
X157790005Y-139892680D01*
X157755446Y-139874208D01*
X157725153Y-139849347D01*
X157700292Y-139819054D01*
X157681820Y-139784495D01*
X157670445Y-139746999D01*
X157666000Y-139701862D01*
X157666000Y-139063138D01*
X157670445Y-139018001D01*
X157681820Y-138980505D01*
X157700292Y-138945946D01*
X157725153Y-138915653D01*
X157755446Y-138890792D01*
X157790005Y-138872320D01*
X157827501Y-138860945D01*
X157872638Y-138856500D01*
X158611362Y-138856500D01*
X158656499Y-138860945D01*
G37*
G36*
X156906499Y-138860945D02*
G01*
X156943995Y-138872320D01*
X156978554Y-138890792D01*
X157008847Y-138915653D01*
X157033708Y-138945946D01*
X157052180Y-138980505D01*
X157063555Y-139018001D01*
X157068000Y-139063138D01*
X157068000Y-139701862D01*
X157063555Y-139746999D01*
X157052180Y-139784495D01*
X157033708Y-139819054D01*
X157008847Y-139849347D01*
X156978554Y-139874208D01*
X156943995Y-139892680D01*
X156906499Y-139904055D01*
X156861362Y-139908500D01*
X156122638Y-139908500D01*
X156077501Y-139904055D01*
X156040005Y-139892680D01*
X156005446Y-139874208D01*
X155975153Y-139849347D01*
X155950292Y-139819054D01*
X155931820Y-139784495D01*
X155920445Y-139746999D01*
X155916000Y-139701862D01*
X155916000Y-139063138D01*
X155920445Y-139018001D01*
X155931820Y-138980505D01*
X155950292Y-138945946D01*
X155975153Y-138915653D01*
X156005446Y-138890792D01*
X156040005Y-138872320D01*
X156077501Y-138860945D01*
X156122638Y-138856500D01*
X156861362Y-138856500D01*
X156906499Y-138860945D01*
G37*
G36*
X137730000Y-139240500D02*
G01*
X135828000Y-139240500D01*
X135828000Y-137388500D01*
X137730000Y-137388500D01*
X137730000Y-139240500D01*
G37*
G36*
X158543499Y-137146445D02*
G01*
X158580995Y-137157820D01*
X158615554Y-137176292D01*
X158645847Y-137201153D01*
X158670708Y-137231446D01*
X158689180Y-137266005D01*
X158700555Y-137303501D01*
X158705000Y-137348638D01*
X158705000Y-137987362D01*
X158700555Y-138032499D01*
X158689180Y-138069995D01*
X158670708Y-138104554D01*
X158645847Y-138134847D01*
X158615554Y-138159708D01*
X158580995Y-138178180D01*
X158543499Y-138189555D01*
X158498362Y-138194000D01*
X157759638Y-138194000D01*
X157714501Y-138189555D01*
X157677005Y-138178180D01*
X157642446Y-138159708D01*
X157612153Y-138134847D01*
X157587292Y-138104554D01*
X157568820Y-138069995D01*
X157557445Y-138032499D01*
X157553000Y-137987362D01*
X157553000Y-137348638D01*
X157557445Y-137303501D01*
X157568820Y-137266005D01*
X157587292Y-137231446D01*
X157612153Y-137201153D01*
X157642446Y-137176292D01*
X157677005Y-137157820D01*
X157714501Y-137146445D01*
X157759638Y-137142000D01*
X158498362Y-137142000D01*
X158543499Y-137146445D01*
G37*
G36*
X160293499Y-137146445D02*
G01*
X160330995Y-137157820D01*
X160365554Y-137176292D01*
X160395847Y-137201153D01*
X160420708Y-137231446D01*
X160439180Y-137266005D01*
X160450555Y-137303501D01*
X160455000Y-137348638D01*
X160455000Y-137987362D01*
X160450555Y-138032499D01*
X160439180Y-138069995D01*
X160420708Y-138104554D01*
X160395847Y-138134847D01*
X160365554Y-138159708D01*
X160330995Y-138178180D01*
X160293499Y-138189555D01*
X160248362Y-138194000D01*
X159509638Y-138194000D01*
X159464501Y-138189555D01*
X159427005Y-138178180D01*
X159392446Y-138159708D01*
X159362153Y-138134847D01*
X159337292Y-138104554D01*
X159318820Y-138069995D01*
X159307445Y-138032499D01*
X159303000Y-137987362D01*
X159303000Y-137348638D01*
X159307445Y-137303501D01*
X159318820Y-137266005D01*
X159337292Y-137231446D01*
X159362153Y-137201153D01*
X159392446Y-137176292D01*
X159427005Y-137157820D01*
X159464501Y-137146445D01*
X159509638Y-137142000D01*
X160248362Y-137142000D01*
X160293499Y-137146445D01*
G37*
G36*
X141229499Y-135876445D02*
G01*
X141266995Y-135887820D01*
X141301554Y-135906292D01*
X141331847Y-135931153D01*
X141356708Y-135961446D01*
X141375180Y-135996005D01*
X141386555Y-136033501D01*
X141391000Y-136078638D01*
X141391000Y-136717362D01*
X141386555Y-136762499D01*
X141375180Y-136799995D01*
X141356708Y-136834554D01*
X141331847Y-136864847D01*
X141301554Y-136889708D01*
X141266995Y-136908180D01*
X141229499Y-136919555D01*
X141184362Y-136924000D01*
X140445638Y-136924000D01*
X140400501Y-136919555D01*
X140363005Y-136908180D01*
X140328446Y-136889708D01*
X140298153Y-136864847D01*
X140273292Y-136834554D01*
X140254820Y-136799995D01*
X140243445Y-136762499D01*
X140239000Y-136717362D01*
X140239000Y-136078638D01*
X140243445Y-136033501D01*
X140254820Y-135996005D01*
X140273292Y-135961446D01*
X140298153Y-135931153D01*
X140328446Y-135906292D01*
X140363005Y-135887820D01*
X140400501Y-135876445D01*
X140445638Y-135872000D01*
X141184362Y-135872000D01*
X141229499Y-135876445D01*
G37*
G36*
X139479499Y-135876445D02*
G01*
X139516995Y-135887820D01*
X139551554Y-135906292D01*
X139581847Y-135931153D01*
X139606708Y-135961446D01*
X139625180Y-135996005D01*
X139636555Y-136033501D01*
X139641000Y-136078638D01*
X139641000Y-136717362D01*
X139636555Y-136762499D01*
X139625180Y-136799995D01*
X139606708Y-136834554D01*
X139581847Y-136864847D01*
X139551554Y-136889708D01*
X139516995Y-136908180D01*
X139479499Y-136919555D01*
X139434362Y-136924000D01*
X138695638Y-136924000D01*
X138650501Y-136919555D01*
X138613005Y-136908180D01*
X138578446Y-136889708D01*
X138548153Y-136864847D01*
X138523292Y-136834554D01*
X138504820Y-136799995D01*
X138493445Y-136762499D01*
X138489000Y-136717362D01*
X138489000Y-136078638D01*
X138493445Y-136033501D01*
X138504820Y-135996005D01*
X138523292Y-135961446D01*
X138548153Y-135931153D01*
X138578446Y-135906292D01*
X138613005Y-135887820D01*
X138650501Y-135876445D01*
X138695638Y-135872000D01*
X139434362Y-135872000D01*
X139479499Y-135876445D01*
G37*
G36*
X168929499Y-135622445D02*
G01*
X168966995Y-135633820D01*
X169001554Y-135652292D01*
X169031847Y-135677153D01*
X169056708Y-135707446D01*
X169075180Y-135742005D01*
X169086555Y-135779501D01*
X169091000Y-135824638D01*
X169091000Y-136463362D01*
X169086555Y-136508499D01*
X169075180Y-136545995D01*
X169056708Y-136580554D01*
X169031847Y-136610847D01*
X169001554Y-136635708D01*
X168966995Y-136654180D01*
X168929499Y-136665555D01*
X168884362Y-136670000D01*
X168145638Y-136670000D01*
X168100501Y-136665555D01*
X168063005Y-136654180D01*
X168028446Y-136635708D01*
X167998153Y-136610847D01*
X167973292Y-136580554D01*
X167954820Y-136545995D01*
X167943445Y-136508499D01*
X167939000Y-136463362D01*
X167939000Y-135824638D01*
X167943445Y-135779501D01*
X167954820Y-135742005D01*
X167973292Y-135707446D01*
X167998153Y-135677153D01*
X168028446Y-135652292D01*
X168063005Y-135633820D01*
X168100501Y-135622445D01*
X168145638Y-135618000D01*
X168884362Y-135618000D01*
X168929499Y-135622445D01*
G37*
G36*
X167179499Y-135622445D02*
G01*
X167216995Y-135633820D01*
X167251554Y-135652292D01*
X167281847Y-135677153D01*
X167306708Y-135707446D01*
X167325180Y-135742005D01*
X167336555Y-135779501D01*
X167341000Y-135824638D01*
X167341000Y-136463362D01*
X167336555Y-136508499D01*
X167325180Y-136545995D01*
X167306708Y-136580554D01*
X167281847Y-136610847D01*
X167251554Y-136635708D01*
X167216995Y-136654180D01*
X167179499Y-136665555D01*
X167134362Y-136670000D01*
X166395638Y-136670000D01*
X166350501Y-136665555D01*
X166313005Y-136654180D01*
X166278446Y-136635708D01*
X166248153Y-136610847D01*
X166223292Y-136580554D01*
X166204820Y-136545995D01*
X166193445Y-136508499D01*
X166189000Y-136463362D01*
X166189000Y-135824638D01*
X166193445Y-135779501D01*
X166204820Y-135742005D01*
X166223292Y-135707446D01*
X166248153Y-135677153D01*
X166278446Y-135652292D01*
X166313005Y-135633820D01*
X166350501Y-135622445D01*
X166395638Y-135618000D01*
X167134362Y-135618000D01*
X167179499Y-135622445D01*
G37*
G36*
X158543499Y-135368445D02*
G01*
X158580995Y-135379820D01*
X158615554Y-135398292D01*
X158645847Y-135423153D01*
X158670708Y-135453446D01*
X158689180Y-135488005D01*
X158700555Y-135525501D01*
X158705000Y-135570638D01*
X158705000Y-136209362D01*
X158700555Y-136254499D01*
X158689180Y-136291995D01*
X158670708Y-136326554D01*
X158645847Y-136356847D01*
X158615554Y-136381708D01*
X158580995Y-136400180D01*
X158543499Y-136411555D01*
X158498362Y-136416000D01*
X157759638Y-136416000D01*
X157714501Y-136411555D01*
X157677005Y-136400180D01*
X157642446Y-136381708D01*
X157612153Y-136356847D01*
X157587292Y-136326554D01*
X157568820Y-136291995D01*
X157557445Y-136254499D01*
X157553000Y-136209362D01*
X157553000Y-135570638D01*
X157557445Y-135525501D01*
X157568820Y-135488005D01*
X157587292Y-135453446D01*
X157612153Y-135423153D01*
X157642446Y-135398292D01*
X157677005Y-135379820D01*
X157714501Y-135368445D01*
X157759638Y-135364000D01*
X158498362Y-135364000D01*
X158543499Y-135368445D01*
G37*
G36*
X160293499Y-135368445D02*
G01*
X160330995Y-135379820D01*
X160365554Y-135398292D01*
X160395847Y-135423153D01*
X160420708Y-135453446D01*
X160439180Y-135488005D01*
X160450555Y-135525501D01*
X160455000Y-135570638D01*
X160455000Y-136209362D01*
X160450555Y-136254499D01*
X160439180Y-136291995D01*
X160420708Y-136326554D01*
X160395847Y-136356847D01*
X160365554Y-136381708D01*
X160330995Y-136400180D01*
X160293499Y-136411555D01*
X160248362Y-136416000D01*
X159509638Y-136416000D01*
X159464501Y-136411555D01*
X159427005Y-136400180D01*
X159392446Y-136381708D01*
X159362153Y-136356847D01*
X159337292Y-136326554D01*
X159318820Y-136291995D01*
X159307445Y-136254499D01*
X159303000Y-136209362D01*
X159303000Y-135570638D01*
X159307445Y-135525501D01*
X159318820Y-135488005D01*
X159337292Y-135453446D01*
X159362153Y-135423153D01*
X159392446Y-135398292D01*
X159427005Y-135379820D01*
X159464501Y-135368445D01*
X159509638Y-135364000D01*
X160248362Y-135364000D01*
X160293499Y-135368445D01*
G37*
G36*
X137730000Y-135990500D02*
G01*
X135828000Y-135990500D01*
X135828000Y-134138500D01*
X137730000Y-134138500D01*
X137730000Y-135990500D01*
G37*
G36*
X139479499Y-134098445D02*
G01*
X139516995Y-134109820D01*
X139551554Y-134128292D01*
X139581847Y-134153153D01*
X139606708Y-134183446D01*
X139625180Y-134218005D01*
X139636555Y-134255501D01*
X139641000Y-134300638D01*
X139641000Y-134939362D01*
X139636555Y-134984499D01*
X139625180Y-135021995D01*
X139606708Y-135056554D01*
X139581847Y-135086847D01*
X139551554Y-135111708D01*
X139516995Y-135130180D01*
X139479499Y-135141555D01*
X139434362Y-135146000D01*
X138695638Y-135146000D01*
X138650501Y-135141555D01*
X138613005Y-135130180D01*
X138578446Y-135111708D01*
X138548153Y-135086847D01*
X138523292Y-135056554D01*
X138504820Y-135021995D01*
X138493445Y-134984499D01*
X138489000Y-134939362D01*
X138489000Y-134300638D01*
X138493445Y-134255501D01*
X138504820Y-134218005D01*
X138523292Y-134183446D01*
X138548153Y-134153153D01*
X138578446Y-134128292D01*
X138613005Y-134109820D01*
X138650501Y-134098445D01*
X138695638Y-134094000D01*
X139434362Y-134094000D01*
X139479499Y-134098445D01*
G37*
G36*
X141229499Y-134098445D02*
G01*
X141266995Y-134109820D01*
X141301554Y-134128292D01*
X141331847Y-134153153D01*
X141356708Y-134183446D01*
X141375180Y-134218005D01*
X141386555Y-134255501D01*
X141391000Y-134300638D01*
X141391000Y-134939362D01*
X141386555Y-134984499D01*
X141375180Y-135021995D01*
X141356708Y-135056554D01*
X141331847Y-135086847D01*
X141301554Y-135111708D01*
X141266995Y-135130180D01*
X141229499Y-135141555D01*
X141184362Y-135146000D01*
X140445638Y-135146000D01*
X140400501Y-135141555D01*
X140363005Y-135130180D01*
X140328446Y-135111708D01*
X140298153Y-135086847D01*
X140273292Y-135056554D01*
X140254820Y-135021995D01*
X140243445Y-134984499D01*
X140239000Y-134939362D01*
X140239000Y-134300638D01*
X140243445Y-134255501D01*
X140254820Y-134218005D01*
X140273292Y-134183446D01*
X140298153Y-134153153D01*
X140328446Y-134128292D01*
X140363005Y-134109820D01*
X140400501Y-134098445D01*
X140445638Y-134094000D01*
X141184362Y-134094000D01*
X141229499Y-134098445D01*
G37*
G36*
X158543499Y-133590445D02*
G01*
X158580995Y-133601820D01*
X158615554Y-133620292D01*
X158645847Y-133645153D01*
X158670708Y-133675446D01*
X158689180Y-133710005D01*
X158700555Y-133747501D01*
X158705000Y-133792638D01*
X158705000Y-134431362D01*
X158700555Y-134476499D01*
X158689180Y-134513995D01*
X158670708Y-134548554D01*
X158645847Y-134578847D01*
X158615554Y-134603708D01*
X158580995Y-134622180D01*
X158543499Y-134633555D01*
X158498362Y-134638000D01*
X157759638Y-134638000D01*
X157714501Y-134633555D01*
X157677005Y-134622180D01*
X157642446Y-134603708D01*
X157612153Y-134578847D01*
X157587292Y-134548554D01*
X157568820Y-134513995D01*
X157557445Y-134476499D01*
X157553000Y-134431362D01*
X157553000Y-133792638D01*
X157557445Y-133747501D01*
X157568820Y-133710005D01*
X157587292Y-133675446D01*
X157612153Y-133645153D01*
X157642446Y-133620292D01*
X157677005Y-133601820D01*
X157714501Y-133590445D01*
X157759638Y-133586000D01*
X158498362Y-133586000D01*
X158543499Y-133590445D01*
G37*
G36*
X160293499Y-133590445D02*
G01*
X160330995Y-133601820D01*
X160365554Y-133620292D01*
X160395847Y-133645153D01*
X160420708Y-133675446D01*
X160439180Y-133710005D01*
X160450555Y-133747501D01*
X160455000Y-133792638D01*
X160455000Y-134431362D01*
X160450555Y-134476499D01*
X160439180Y-134513995D01*
X160420708Y-134548554D01*
X160395847Y-134578847D01*
X160365554Y-134603708D01*
X160330995Y-134622180D01*
X160293499Y-134633555D01*
X160248362Y-134638000D01*
X159509638Y-134638000D01*
X159464501Y-134633555D01*
X159427005Y-134622180D01*
X159392446Y-134603708D01*
X159362153Y-134578847D01*
X159337292Y-134548554D01*
X159318820Y-134513995D01*
X159307445Y-134476499D01*
X159303000Y-134431362D01*
X159303000Y-133792638D01*
X159307445Y-133747501D01*
X159318820Y-133710005D01*
X159337292Y-133675446D01*
X159362153Y-133645153D01*
X159392446Y-133620292D01*
X159427005Y-133601820D01*
X159464501Y-133590445D01*
X159509638Y-133586000D01*
X160248362Y-133586000D01*
X160293499Y-133590445D01*
G37*
G36*
X168929499Y-133336445D02*
G01*
X168966995Y-133347820D01*
X169001554Y-133366292D01*
X169031847Y-133391153D01*
X169056708Y-133421446D01*
X169075180Y-133456005D01*
X169086555Y-133493501D01*
X169091000Y-133538638D01*
X169091000Y-134177362D01*
X169086555Y-134222499D01*
X169075180Y-134259995D01*
X169056708Y-134294554D01*
X169031847Y-134324847D01*
X169001554Y-134349708D01*
X168966995Y-134368180D01*
X168929499Y-134379555D01*
X168884362Y-134384000D01*
X168145638Y-134384000D01*
X168100501Y-134379555D01*
X168063005Y-134368180D01*
X168028446Y-134349708D01*
X167998153Y-134324847D01*
X167973292Y-134294554D01*
X167954820Y-134259995D01*
X167943445Y-134222499D01*
X167939000Y-134177362D01*
X167939000Y-133538638D01*
X167943445Y-133493501D01*
X167954820Y-133456005D01*
X167973292Y-133421446D01*
X167998153Y-133391153D01*
X168028446Y-133366292D01*
X168063005Y-133347820D01*
X168100501Y-133336445D01*
X168145638Y-133332000D01*
X168884362Y-133332000D01*
X168929499Y-133336445D01*
G37*
G36*
X167179499Y-133336445D02*
G01*
X167216995Y-133347820D01*
X167251554Y-133366292D01*
X167281847Y-133391153D01*
X167306708Y-133421446D01*
X167325180Y-133456005D01*
X167336555Y-133493501D01*
X167341000Y-133538638D01*
X167341000Y-134177362D01*
X167336555Y-134222499D01*
X167325180Y-134259995D01*
X167306708Y-134294554D01*
X167281847Y-134324847D01*
X167251554Y-134349708D01*
X167216995Y-134368180D01*
X167179499Y-134379555D01*
X167134362Y-134384000D01*
X166395638Y-134384000D01*
X166350501Y-134379555D01*
X166313005Y-134368180D01*
X166278446Y-134349708D01*
X166248153Y-134324847D01*
X166223292Y-134294554D01*
X166204820Y-134259995D01*
X166193445Y-134222499D01*
X166189000Y-134177362D01*
X166189000Y-133538638D01*
X166193445Y-133493501D01*
X166204820Y-133456005D01*
X166223292Y-133421446D01*
X166248153Y-133391153D01*
X166278446Y-133366292D01*
X166313005Y-133347820D01*
X166350501Y-133336445D01*
X166395638Y-133332000D01*
X167134362Y-133332000D01*
X167179499Y-133336445D01*
G37*
G36*
X160208499Y-131812445D02*
G01*
X160245995Y-131823820D01*
X160280554Y-131842292D01*
X160310847Y-131867153D01*
X160335708Y-131897446D01*
X160354180Y-131932005D01*
X160365555Y-131969501D01*
X160370000Y-132014638D01*
X160370000Y-132653362D01*
X160365555Y-132698499D01*
X160354180Y-132735995D01*
X160335708Y-132770554D01*
X160310847Y-132800847D01*
X160280554Y-132825708D01*
X160245995Y-132844180D01*
X160208499Y-132855555D01*
X160163362Y-132860000D01*
X159424638Y-132860000D01*
X159379501Y-132855555D01*
X159342005Y-132844180D01*
X159307446Y-132825708D01*
X159277153Y-132800847D01*
X159252292Y-132770554D01*
X159233820Y-132735995D01*
X159222445Y-132698499D01*
X159218000Y-132653362D01*
X159218000Y-132014638D01*
X159222445Y-131969501D01*
X159233820Y-131932005D01*
X159252292Y-131897446D01*
X159277153Y-131867153D01*
X159307446Y-131842292D01*
X159342005Y-131823820D01*
X159379501Y-131812445D01*
X159424638Y-131808000D01*
X160163362Y-131808000D01*
X160208499Y-131812445D01*
G37*
G36*
X161958499Y-131812445D02*
G01*
X161995995Y-131823820D01*
X162030554Y-131842292D01*
X162060847Y-131867153D01*
X162085708Y-131897446D01*
X162104180Y-131932005D01*
X162115555Y-131969501D01*
X162120000Y-132014638D01*
X162120000Y-132653362D01*
X162115555Y-132698499D01*
X162104180Y-132735995D01*
X162085708Y-132770554D01*
X162060847Y-132800847D01*
X162030554Y-132825708D01*
X161995995Y-132844180D01*
X161958499Y-132855555D01*
X161913362Y-132860000D01*
X161174638Y-132860000D01*
X161129501Y-132855555D01*
X161092005Y-132844180D01*
X161057446Y-132825708D01*
X161027153Y-132800847D01*
X161002292Y-132770554D01*
X160983820Y-132735995D01*
X160972445Y-132698499D01*
X160968000Y-132653362D01*
X160968000Y-132014638D01*
X160972445Y-131969501D01*
X160983820Y-131932005D01*
X161002292Y-131897446D01*
X161027153Y-131867153D01*
X161057446Y-131842292D01*
X161092005Y-131823820D01*
X161129501Y-131812445D01*
X161174638Y-131808000D01*
X161913362Y-131808000D01*
X161958499Y-131812445D01*
G37*
G36*
X153195499Y-130161445D02*
G01*
X153232995Y-130172820D01*
X153267554Y-130191292D01*
X153297847Y-130216153D01*
X153322708Y-130246446D01*
X153341180Y-130281005D01*
X153352555Y-130318501D01*
X153357000Y-130363638D01*
X153357000Y-131002362D01*
X153352555Y-131047499D01*
X153341180Y-131084995D01*
X153322708Y-131119554D01*
X153297847Y-131149847D01*
X153267554Y-131174708D01*
X153232995Y-131193180D01*
X153195499Y-131204555D01*
X153150362Y-131209000D01*
X152411638Y-131209000D01*
X152366501Y-131204555D01*
X152329005Y-131193180D01*
X152294446Y-131174708D01*
X152264153Y-131149847D01*
X152239292Y-131119554D01*
X152220820Y-131084995D01*
X152209445Y-131047499D01*
X152205000Y-131002362D01*
X152205000Y-130363638D01*
X152209445Y-130318501D01*
X152220820Y-130281005D01*
X152239292Y-130246446D01*
X152264153Y-130216153D01*
X152294446Y-130191292D01*
X152329005Y-130172820D01*
X152366501Y-130161445D01*
X152411638Y-130157000D01*
X153150362Y-130157000D01*
X153195499Y-130161445D01*
G37*
G36*
X146591499Y-130161445D02*
G01*
X146628995Y-130172820D01*
X146663554Y-130191292D01*
X146693847Y-130216153D01*
X146718708Y-130246446D01*
X146737180Y-130281005D01*
X146748555Y-130318501D01*
X146753000Y-130363638D01*
X146753000Y-131002362D01*
X146748555Y-131047499D01*
X146737180Y-131084995D01*
X146718708Y-131119554D01*
X146693847Y-131149847D01*
X146663554Y-131174708D01*
X146628995Y-131193180D01*
X146591499Y-131204555D01*
X146546362Y-131209000D01*
X145807638Y-131209000D01*
X145762501Y-131204555D01*
X145725005Y-131193180D01*
X145690446Y-131174708D01*
X145660153Y-131149847D01*
X145635292Y-131119554D01*
X145616820Y-131084995D01*
X145605445Y-131047499D01*
X145601000Y-131002362D01*
X145601000Y-130363638D01*
X145605445Y-130318501D01*
X145616820Y-130281005D01*
X145635292Y-130246446D01*
X145660153Y-130216153D01*
X145690446Y-130191292D01*
X145725005Y-130172820D01*
X145762501Y-130161445D01*
X145807638Y-130157000D01*
X146546362Y-130157000D01*
X146591499Y-130161445D01*
G37*
G36*
X154945499Y-130161445D02*
G01*
X154982995Y-130172820D01*
X155017554Y-130191292D01*
X155047847Y-130216153D01*
X155072708Y-130246446D01*
X155091180Y-130281005D01*
X155102555Y-130318501D01*
X155107000Y-130363638D01*
X155107000Y-131002362D01*
X155102555Y-131047499D01*
X155091180Y-131084995D01*
X155072708Y-131119554D01*
X155047847Y-131149847D01*
X155017554Y-131174708D01*
X154982995Y-131193180D01*
X154945499Y-131204555D01*
X154900362Y-131209000D01*
X154161638Y-131209000D01*
X154116501Y-131204555D01*
X154079005Y-131193180D01*
X154044446Y-131174708D01*
X154014153Y-131149847D01*
X153989292Y-131119554D01*
X153970820Y-131084995D01*
X153959445Y-131047499D01*
X153955000Y-131002362D01*
X153955000Y-130363638D01*
X153959445Y-130318501D01*
X153970820Y-130281005D01*
X153989292Y-130246446D01*
X154014153Y-130216153D01*
X154044446Y-130191292D01*
X154079005Y-130172820D01*
X154116501Y-130161445D01*
X154161638Y-130157000D01*
X154900362Y-130157000D01*
X154945499Y-130161445D01*
G37*
G36*
X144841499Y-130161445D02*
G01*
X144878995Y-130172820D01*
X144913554Y-130191292D01*
X144943847Y-130216153D01*
X144968708Y-130246446D01*
X144987180Y-130281005D01*
X144998555Y-130318501D01*
X145003000Y-130363638D01*
X145003000Y-131002362D01*
X144998555Y-131047499D01*
X144987180Y-131084995D01*
X144968708Y-131119554D01*
X144943847Y-131149847D01*
X144913554Y-131174708D01*
X144878995Y-131193180D01*
X144841499Y-131204555D01*
X144796362Y-131209000D01*
X144057638Y-131209000D01*
X144012501Y-131204555D01*
X143975005Y-131193180D01*
X143940446Y-131174708D01*
X143910153Y-131149847D01*
X143885292Y-131119554D01*
X143866820Y-131084995D01*
X143855445Y-131047499D01*
X143851000Y-131002362D01*
X143851000Y-130363638D01*
X143855445Y-130318501D01*
X143866820Y-130281005D01*
X143885292Y-130246446D01*
X143910153Y-130216153D01*
X143940446Y-130191292D01*
X143975005Y-130172820D01*
X144012501Y-130161445D01*
X144057638Y-130157000D01*
X144796362Y-130157000D01*
X144841499Y-130161445D01*
G37*
G36*
X161958499Y-130034445D02*
G01*
X161995995Y-130045820D01*
X162030554Y-130064292D01*
X162060847Y-130089153D01*
X162085708Y-130119446D01*
X162104180Y-130154005D01*
X162115555Y-130191501D01*
X162120000Y-130236638D01*
X162120000Y-130875362D01*
X162115555Y-130920499D01*
X162104180Y-130957995D01*
X162085708Y-130992554D01*
X162060847Y-131022847D01*
X162030554Y-131047708D01*
X161995995Y-131066180D01*
X161958499Y-131077555D01*
X161913362Y-131082000D01*
X161174638Y-131082000D01*
X161129501Y-131077555D01*
X161092005Y-131066180D01*
X161057446Y-131047708D01*
X161027153Y-131022847D01*
X161002292Y-130992554D01*
X160983820Y-130957995D01*
X160972445Y-130920499D01*
X160968000Y-130875362D01*
X160968000Y-130236638D01*
X160972445Y-130191501D01*
X160983820Y-130154005D01*
X161002292Y-130119446D01*
X161027153Y-130089153D01*
X161057446Y-130064292D01*
X161092005Y-130045820D01*
X161129501Y-130034445D01*
X161174638Y-130030000D01*
X161913362Y-130030000D01*
X161958499Y-130034445D01*
G37*
G36*
X160208499Y-130034445D02*
G01*
X160245995Y-130045820D01*
X160280554Y-130064292D01*
X160310847Y-130089153D01*
X160335708Y-130119446D01*
X160354180Y-130154005D01*
X160365555Y-130191501D01*
X160370000Y-130236638D01*
X160370000Y-130875362D01*
X160365555Y-130920499D01*
X160354180Y-130957995D01*
X160335708Y-130992554D01*
X160310847Y-131022847D01*
X160280554Y-131047708D01*
X160245995Y-131066180D01*
X160208499Y-131077555D01*
X160163362Y-131082000D01*
X159424638Y-131082000D01*
X159379501Y-131077555D01*
X159342005Y-131066180D01*
X159307446Y-131047708D01*
X159277153Y-131022847D01*
X159252292Y-130992554D01*
X159233820Y-130957995D01*
X159222445Y-130920499D01*
X159218000Y-130875362D01*
X159218000Y-130236638D01*
X159222445Y-130191501D01*
X159233820Y-130154005D01*
X159252292Y-130119446D01*
X159277153Y-130089153D01*
X159307446Y-130064292D01*
X159342005Y-130045820D01*
X159379501Y-130034445D01*
X159424638Y-130030000D01*
X160163362Y-130030000D01*
X160208499Y-130034445D01*
G37*
G36*
X151417499Y-128383445D02*
G01*
X151454995Y-128394820D01*
X151489554Y-128413292D01*
X151519847Y-128438153D01*
X151544708Y-128468446D01*
X151563180Y-128503005D01*
X151574555Y-128540501D01*
X151579000Y-128585638D01*
X151579000Y-129224362D01*
X151574555Y-129269499D01*
X151563180Y-129306995D01*
X151544708Y-129341554D01*
X151519847Y-129371847D01*
X151489554Y-129396708D01*
X151454995Y-129415180D01*
X151417499Y-129426555D01*
X151372362Y-129431000D01*
X150633638Y-129431000D01*
X150588501Y-129426555D01*
X150551005Y-129415180D01*
X150516446Y-129396708D01*
X150486153Y-129371847D01*
X150461292Y-129341554D01*
X150442820Y-129306995D01*
X150431445Y-129269499D01*
X150427000Y-129224362D01*
X150427000Y-128585638D01*
X150431445Y-128540501D01*
X150442820Y-128503005D01*
X150461292Y-128468446D01*
X150486153Y-128438153D01*
X150516446Y-128413292D01*
X150551005Y-128394820D01*
X150588501Y-128383445D01*
X150633638Y-128379000D01*
X151372362Y-128379000D01*
X151417499Y-128383445D01*
G37*
G36*
X148369499Y-128383445D02*
G01*
X148406995Y-128394820D01*
X148441554Y-128413292D01*
X148471847Y-128438153D01*
X148496708Y-128468446D01*
X148515180Y-128503005D01*
X148526555Y-128540501D01*
X148531000Y-128585638D01*
X148531000Y-129224362D01*
X148526555Y-129269499D01*
X148515180Y-129306995D01*
X148496708Y-129341554D01*
X148471847Y-129371847D01*
X148441554Y-129396708D01*
X148406995Y-129415180D01*
X148369499Y-129426555D01*
X148324362Y-129431000D01*
X147585638Y-129431000D01*
X147540501Y-129426555D01*
X147503005Y-129415180D01*
X147468446Y-129396708D01*
X147438153Y-129371847D01*
X147413292Y-129341554D01*
X147394820Y-129306995D01*
X147383445Y-129269499D01*
X147379000Y-129224362D01*
X147379000Y-128585638D01*
X147383445Y-128540501D01*
X147394820Y-128503005D01*
X147413292Y-128468446D01*
X147438153Y-128438153D01*
X147468446Y-128413292D01*
X147503005Y-128394820D01*
X147540501Y-128383445D01*
X147585638Y-128379000D01*
X148324362Y-128379000D01*
X148369499Y-128383445D01*
G37*
G36*
X153167499Y-128383445D02*
G01*
X153204995Y-128394820D01*
X153239554Y-128413292D01*
X153269847Y-128438153D01*
X153294708Y-128468446D01*
X153313180Y-128503005D01*
X153324555Y-128540501D01*
X153329000Y-128585638D01*
X153329000Y-129224362D01*
X153324555Y-129269499D01*
X153313180Y-129306995D01*
X153294708Y-129341554D01*
X153269847Y-129371847D01*
X153239554Y-129396708D01*
X153204995Y-129415180D01*
X153167499Y-129426555D01*
X153122362Y-129431000D01*
X152383638Y-129431000D01*
X152338501Y-129426555D01*
X152301005Y-129415180D01*
X152266446Y-129396708D01*
X152236153Y-129371847D01*
X152211292Y-129341554D01*
X152192820Y-129306995D01*
X152181445Y-129269499D01*
X152177000Y-129224362D01*
X152177000Y-128585638D01*
X152181445Y-128540501D01*
X152192820Y-128503005D01*
X152211292Y-128468446D01*
X152236153Y-128438153D01*
X152266446Y-128413292D01*
X152301005Y-128394820D01*
X152338501Y-128383445D01*
X152383638Y-128379000D01*
X153122362Y-128379000D01*
X153167499Y-128383445D01*
G37*
G36*
X146619499Y-128383445D02*
G01*
X146656995Y-128394820D01*
X146691554Y-128413292D01*
X146721847Y-128438153D01*
X146746708Y-128468446D01*
X146765180Y-128503005D01*
X146776555Y-128540501D01*
X146781000Y-128585638D01*
X146781000Y-129224362D01*
X146776555Y-129269499D01*
X146765180Y-129306995D01*
X146746708Y-129341554D01*
X146721847Y-129371847D01*
X146691554Y-129396708D01*
X146656995Y-129415180D01*
X146619499Y-129426555D01*
X146574362Y-129431000D01*
X145835638Y-129431000D01*
X145790501Y-129426555D01*
X145753005Y-129415180D01*
X145718446Y-129396708D01*
X145688153Y-129371847D01*
X145663292Y-129341554D01*
X145644820Y-129306995D01*
X145633445Y-129269499D01*
X145629000Y-129224362D01*
X145629000Y-128585638D01*
X145633445Y-128540501D01*
X145644820Y-128503005D01*
X145663292Y-128468446D01*
X145688153Y-128438153D01*
X145718446Y-128413292D01*
X145753005Y-128394820D01*
X145790501Y-128383445D01*
X145835638Y-128379000D01*
X146574362Y-128379000D01*
X146619499Y-128383445D01*
G37*
G36*
X161944499Y-128256445D02*
G01*
X161981995Y-128267820D01*
X162016554Y-128286292D01*
X162046847Y-128311153D01*
X162071708Y-128341446D01*
X162090180Y-128376005D01*
X162101555Y-128413501D01*
X162106000Y-128458638D01*
X162106000Y-129097362D01*
X162101555Y-129142499D01*
X162090180Y-129179995D01*
X162071708Y-129214554D01*
X162046847Y-129244847D01*
X162016554Y-129269708D01*
X161981995Y-129288180D01*
X161944499Y-129299555D01*
X161899362Y-129304000D01*
X161160638Y-129304000D01*
X161115501Y-129299555D01*
X161078005Y-129288180D01*
X161043446Y-129269708D01*
X161013153Y-129244847D01*
X160988292Y-129214554D01*
X160969820Y-129179995D01*
X160958445Y-129142499D01*
X160954000Y-129097362D01*
X160954000Y-128458638D01*
X160958445Y-128413501D01*
X160969820Y-128376005D01*
X160988292Y-128341446D01*
X161013153Y-128311153D01*
X161043446Y-128286292D01*
X161078005Y-128267820D01*
X161115501Y-128256445D01*
X161160638Y-128252000D01*
X161899362Y-128252000D01*
X161944499Y-128256445D01*
G37*
G36*
X160194499Y-128256445D02*
G01*
X160231995Y-128267820D01*
X160266554Y-128286292D01*
X160296847Y-128311153D01*
X160321708Y-128341446D01*
X160340180Y-128376005D01*
X160351555Y-128413501D01*
X160356000Y-128458638D01*
X160356000Y-129097362D01*
X160351555Y-129142499D01*
X160340180Y-129179995D01*
X160321708Y-129214554D01*
X160296847Y-129244847D01*
X160266554Y-129269708D01*
X160231995Y-129288180D01*
X160194499Y-129299555D01*
X160149362Y-129304000D01*
X159410638Y-129304000D01*
X159365501Y-129299555D01*
X159328005Y-129288180D01*
X159293446Y-129269708D01*
X159263153Y-129244847D01*
X159238292Y-129214554D01*
X159219820Y-129179995D01*
X159208445Y-129142499D01*
X159204000Y-129097362D01*
X159204000Y-128458638D01*
X159208445Y-128413501D01*
X159219820Y-128376005D01*
X159238292Y-128341446D01*
X159263153Y-128311153D01*
X159293446Y-128286292D01*
X159328005Y-128267820D01*
X159365501Y-128256445D01*
X159410638Y-128252000D01*
X160149362Y-128252000D01*
X160194499Y-128256445D01*
G37*
G36*
X170427000Y-129051000D02*
G01*
X169425000Y-129051000D01*
X169425000Y-127949000D01*
X170427000Y-127949000D01*
X170427000Y-129051000D01*
G37*
G36*
X166861499Y-127303445D02*
G01*
X166898995Y-127314820D01*
X166933554Y-127333292D01*
X166963847Y-127358153D01*
X166988708Y-127388446D01*
X167007180Y-127423005D01*
X167018555Y-127460501D01*
X167023000Y-127505638D01*
X167023000Y-128244362D01*
X167018555Y-128289499D01*
X167007180Y-128326995D01*
X166988708Y-128361554D01*
X166963847Y-128391847D01*
X166933554Y-128416708D01*
X166898995Y-128435180D01*
X166861499Y-128446555D01*
X166816362Y-128451000D01*
X166177638Y-128451000D01*
X166132501Y-128446555D01*
X166095005Y-128435180D01*
X166060446Y-128416708D01*
X166030153Y-128391847D01*
X166005292Y-128361554D01*
X165986820Y-128326995D01*
X165975445Y-128289499D01*
X165971000Y-128244362D01*
X165971000Y-127505638D01*
X165975445Y-127460501D01*
X165986820Y-127423005D01*
X166005292Y-127388446D01*
X166030153Y-127358153D01*
X166060446Y-127333292D01*
X166095005Y-127314820D01*
X166132501Y-127303445D01*
X166177638Y-127299000D01*
X166816362Y-127299000D01*
X166861499Y-127303445D01*
G37*
G36*
X169927000Y-127651000D02*
G01*
X169025000Y-127651000D01*
X169025000Y-127149000D01*
X169927000Y-127149000D01*
X169927000Y-127651000D01*
G37*
G36*
X160417000Y-126992000D02*
G01*
X159115000Y-126992000D01*
X159115000Y-125990000D01*
X160417000Y-125990000D01*
X160417000Y-126992000D01*
G37*
G36*
X169927000Y-126851000D02*
G01*
X169025000Y-126851000D01*
X169025000Y-126349000D01*
X169927000Y-126349000D01*
X169927000Y-126851000D01*
G37*
G36*
X166861499Y-125553445D02*
G01*
X166898995Y-125564820D01*
X166933554Y-125583292D01*
X166963847Y-125608153D01*
X166988708Y-125638446D01*
X167007180Y-125673005D01*
X167018555Y-125710501D01*
X167023000Y-125755638D01*
X167023000Y-126494362D01*
X167018555Y-126539499D01*
X167007180Y-126576995D01*
X166988708Y-126611554D01*
X166963847Y-126641847D01*
X166933554Y-126666708D01*
X166898995Y-126685180D01*
X166861499Y-126696555D01*
X166816362Y-126701000D01*
X166177638Y-126701000D01*
X166132501Y-126696555D01*
X166095005Y-126685180D01*
X166060446Y-126666708D01*
X166030153Y-126641847D01*
X166005292Y-126611554D01*
X165986820Y-126576995D01*
X165975445Y-126539499D01*
X165971000Y-126494362D01*
X165971000Y-125755638D01*
X165975445Y-125710501D01*
X165986820Y-125673005D01*
X166005292Y-125638446D01*
X166030153Y-125608153D01*
X166060446Y-125583292D01*
X166095005Y-125564820D01*
X166132501Y-125553445D01*
X166177638Y-125549000D01*
X166816362Y-125549000D01*
X166861499Y-125553445D01*
G37*
G36*
X153145499Y-125158445D02*
G01*
X153182995Y-125169820D01*
X153217554Y-125188292D01*
X153247847Y-125213153D01*
X153272708Y-125243446D01*
X153291180Y-125278005D01*
X153302555Y-125315501D01*
X153307000Y-125360638D01*
X153307000Y-126099362D01*
X153302555Y-126144499D01*
X153291180Y-126181995D01*
X153272708Y-126216554D01*
X153247847Y-126246847D01*
X153217554Y-126271708D01*
X153182995Y-126290180D01*
X153145499Y-126301555D01*
X153100362Y-126306000D01*
X152461638Y-126306000D01*
X152416501Y-126301555D01*
X152379005Y-126290180D01*
X152344446Y-126271708D01*
X152314153Y-126246847D01*
X152289292Y-126216554D01*
X152270820Y-126181995D01*
X152259445Y-126144499D01*
X152255000Y-126099362D01*
X152255000Y-125360638D01*
X152259445Y-125315501D01*
X152270820Y-125278005D01*
X152289292Y-125243446D01*
X152314153Y-125213153D01*
X152344446Y-125188292D01*
X152379005Y-125169820D01*
X152416501Y-125158445D01*
X152461638Y-125154000D01*
X153100362Y-125154000D01*
X153145499Y-125158445D01*
G37*
G36*
X154923499Y-125144445D02*
G01*
X154960995Y-125155820D01*
X154995554Y-125174292D01*
X155025847Y-125199153D01*
X155050708Y-125229446D01*
X155069180Y-125264005D01*
X155080555Y-125301501D01*
X155085000Y-125346638D01*
X155085000Y-126085362D01*
X155080555Y-126130499D01*
X155069180Y-126167995D01*
X155050708Y-126202554D01*
X155025847Y-126232847D01*
X154995554Y-126257708D01*
X154960995Y-126276180D01*
X154923499Y-126287555D01*
X154878362Y-126292000D01*
X154239638Y-126292000D01*
X154194501Y-126287555D01*
X154157005Y-126276180D01*
X154122446Y-126257708D01*
X154092153Y-126232847D01*
X154067292Y-126202554D01*
X154048820Y-126167995D01*
X154037445Y-126130499D01*
X154033000Y-126085362D01*
X154033000Y-125346638D01*
X154037445Y-125301501D01*
X154048820Y-125264005D01*
X154067292Y-125229446D01*
X154092153Y-125199153D01*
X154122446Y-125174292D01*
X154157005Y-125155820D01*
X154194501Y-125144445D01*
X154239638Y-125140000D01*
X154878362Y-125140000D01*
X154923499Y-125144445D01*
G37*
G36*
X151367499Y-125144445D02*
G01*
X151404995Y-125155820D01*
X151439554Y-125174292D01*
X151469847Y-125199153D01*
X151494708Y-125229446D01*
X151513180Y-125264005D01*
X151524555Y-125301501D01*
X151529000Y-125346638D01*
X151529000Y-126085362D01*
X151524555Y-126130499D01*
X151513180Y-126167995D01*
X151494708Y-126202554D01*
X151469847Y-126232847D01*
X151439554Y-126257708D01*
X151404995Y-126276180D01*
X151367499Y-126287555D01*
X151322362Y-126292000D01*
X150683638Y-126292000D01*
X150638501Y-126287555D01*
X150601005Y-126276180D01*
X150566446Y-126257708D01*
X150536153Y-126232847D01*
X150511292Y-126202554D01*
X150492820Y-126167995D01*
X150481445Y-126130499D01*
X150477000Y-126085362D01*
X150477000Y-125346638D01*
X150481445Y-125301501D01*
X150492820Y-125264005D01*
X150511292Y-125229446D01*
X150536153Y-125199153D01*
X150566446Y-125174292D01*
X150601005Y-125155820D01*
X150638501Y-125144445D01*
X150683638Y-125140000D01*
X151322362Y-125140000D01*
X151367499Y-125144445D01*
G37*
G36*
X156701499Y-125144445D02*
G01*
X156738995Y-125155820D01*
X156773554Y-125174292D01*
X156803847Y-125199153D01*
X156828708Y-125229446D01*
X156847180Y-125264005D01*
X156858555Y-125301501D01*
X156863000Y-125346638D01*
X156863000Y-126085362D01*
X156858555Y-126130499D01*
X156847180Y-126167995D01*
X156828708Y-126202554D01*
X156803847Y-126232847D01*
X156773554Y-126257708D01*
X156738995Y-126276180D01*
X156701499Y-126287555D01*
X156656362Y-126292000D01*
X156017638Y-126292000D01*
X155972501Y-126287555D01*
X155935005Y-126276180D01*
X155900446Y-126257708D01*
X155870153Y-126232847D01*
X155845292Y-126202554D01*
X155826820Y-126167995D01*
X155815445Y-126130499D01*
X155811000Y-126085362D01*
X155811000Y-125346638D01*
X155815445Y-125301501D01*
X155826820Y-125264005D01*
X155845292Y-125229446D01*
X155870153Y-125199153D01*
X155900446Y-125174292D01*
X155935005Y-125155820D01*
X155972501Y-125144445D01*
X156017638Y-125140000D01*
X156656362Y-125140000D01*
X156701499Y-125144445D01*
G37*
G36*
X170427000Y-126051000D02*
G01*
X169425000Y-126051000D01*
X169425000Y-124949000D01*
X170427000Y-124949000D01*
X170427000Y-126051000D01*
G37*
G36*
X153145499Y-123408445D02*
G01*
X153182995Y-123419820D01*
X153217554Y-123438292D01*
X153247847Y-123463153D01*
X153272708Y-123493446D01*
X153291180Y-123528005D01*
X153302555Y-123565501D01*
X153307000Y-123610638D01*
X153307000Y-124349362D01*
X153302555Y-124394499D01*
X153291180Y-124431995D01*
X153272708Y-124466554D01*
X153247847Y-124496847D01*
X153217554Y-124521708D01*
X153182995Y-124540180D01*
X153145499Y-124551555D01*
X153100362Y-124556000D01*
X152461638Y-124556000D01*
X152416501Y-124551555D01*
X152379005Y-124540180D01*
X152344446Y-124521708D01*
X152314153Y-124496847D01*
X152289292Y-124466554D01*
X152270820Y-124431995D01*
X152259445Y-124394499D01*
X152255000Y-124349362D01*
X152255000Y-123610638D01*
X152259445Y-123565501D01*
X152270820Y-123528005D01*
X152289292Y-123493446D01*
X152314153Y-123463153D01*
X152344446Y-123438292D01*
X152379005Y-123419820D01*
X152416501Y-123408445D01*
X152461638Y-123404000D01*
X153100362Y-123404000D01*
X153145499Y-123408445D01*
G37*
G36*
X154923499Y-123394445D02*
G01*
X154960995Y-123405820D01*
X154995554Y-123424292D01*
X155025847Y-123449153D01*
X155050708Y-123479446D01*
X155069180Y-123514005D01*
X155080555Y-123551501D01*
X155085000Y-123596638D01*
X155085000Y-124335362D01*
X155080555Y-124380499D01*
X155069180Y-124417995D01*
X155050708Y-124452554D01*
X155025847Y-124482847D01*
X154995554Y-124507708D01*
X154960995Y-124526180D01*
X154923499Y-124537555D01*
X154878362Y-124542000D01*
X154239638Y-124542000D01*
X154194501Y-124537555D01*
X154157005Y-124526180D01*
X154122446Y-124507708D01*
X154092153Y-124482847D01*
X154067292Y-124452554D01*
X154048820Y-124417995D01*
X154037445Y-124380499D01*
X154033000Y-124335362D01*
X154033000Y-123596638D01*
X154037445Y-123551501D01*
X154048820Y-123514005D01*
X154067292Y-123479446D01*
X154092153Y-123449153D01*
X154122446Y-123424292D01*
X154157005Y-123405820D01*
X154194501Y-123394445D01*
X154239638Y-123390000D01*
X154878362Y-123390000D01*
X154923499Y-123394445D01*
G37*
G36*
X151367499Y-123394445D02*
G01*
X151404995Y-123405820D01*
X151439554Y-123424292D01*
X151469847Y-123449153D01*
X151494708Y-123479446D01*
X151513180Y-123514005D01*
X151524555Y-123551501D01*
X151529000Y-123596638D01*
X151529000Y-124335362D01*
X151524555Y-124380499D01*
X151513180Y-124417995D01*
X151494708Y-124452554D01*
X151469847Y-124482847D01*
X151439554Y-124507708D01*
X151404995Y-124526180D01*
X151367499Y-124537555D01*
X151322362Y-124542000D01*
X150683638Y-124542000D01*
X150638501Y-124537555D01*
X150601005Y-124526180D01*
X150566446Y-124507708D01*
X150536153Y-124482847D01*
X150511292Y-124452554D01*
X150492820Y-124417995D01*
X150481445Y-124380499D01*
X150477000Y-124335362D01*
X150477000Y-123596638D01*
X150481445Y-123551501D01*
X150492820Y-123514005D01*
X150511292Y-123479446D01*
X150536153Y-123449153D01*
X150566446Y-123424292D01*
X150601005Y-123405820D01*
X150638501Y-123394445D01*
X150683638Y-123390000D01*
X151322362Y-123390000D01*
X151367499Y-123394445D01*
G37*
G36*
X156701499Y-123394445D02*
G01*
X156738995Y-123405820D01*
X156773554Y-123424292D01*
X156803847Y-123449153D01*
X156828708Y-123479446D01*
X156847180Y-123514005D01*
X156858555Y-123551501D01*
X156863000Y-123596638D01*
X156863000Y-124335362D01*
X156858555Y-124380499D01*
X156847180Y-124417995D01*
X156828708Y-124452554D01*
X156803847Y-124482847D01*
X156773554Y-124507708D01*
X156738995Y-124526180D01*
X156701499Y-124537555D01*
X156656362Y-124542000D01*
X156017638Y-124542000D01*
X155972501Y-124537555D01*
X155935005Y-124526180D01*
X155900446Y-124507708D01*
X155870153Y-124482847D01*
X155845292Y-124452554D01*
X155826820Y-124417995D01*
X155815445Y-124380499D01*
X155811000Y-124335362D01*
X155811000Y-123596638D01*
X155815445Y-123551501D01*
X155826820Y-123514005D01*
X155845292Y-123479446D01*
X155870153Y-123449153D01*
X155900446Y-123424292D01*
X155935005Y-123405820D01*
X155972501Y-123394445D01*
X156017638Y-123390000D01*
X156656362Y-123390000D01*
X156701499Y-123394445D01*
G37*
G36*
X160417000Y-123692000D02*
G01*
X159115000Y-123692000D01*
X159115000Y-122690000D01*
X160417000Y-122690000D01*
X160417000Y-123692000D01*
G37*
G36*
X148298627Y-116818037D02*
G01*
X148468466Y-116869557D01*
X148624991Y-116953222D01*
X148660729Y-116982552D01*
X148762186Y-117065814D01*
X148845448Y-117167271D01*
X148874778Y-117203009D01*
X148958443Y-117359534D01*
X149009963Y-117529374D01*
X149023000Y-117661743D01*
X149023000Y-118050258D01*
X149009963Y-118182627D01*
X148958443Y-118352466D01*
X148874778Y-118508991D01*
X148845448Y-118544729D01*
X148762186Y-118646186D01*
X148624989Y-118758779D01*
X148468467Y-118842442D01*
X148468465Y-118842443D01*
X148298626Y-118893963D01*
X148122000Y-118911359D01*
X147945373Y-118893963D01*
X147775534Y-118842443D01*
X147619009Y-118758778D01*
X147576750Y-118724097D01*
X147481814Y-118646186D01*
X147369221Y-118508989D01*
X147285558Y-118352467D01*
X147285557Y-118352465D01*
X147234037Y-118182626D01*
X147221000Y-118050257D01*
X147221000Y-117661742D01*
X147234037Y-117529373D01*
X147285557Y-117359534D01*
X147369222Y-117203009D01*
X147481815Y-117065815D01*
X147619010Y-116953222D01*
X147775535Y-116869557D01*
X147945374Y-116818037D01*
X148122000Y-116800641D01*
X148298627Y-116818037D01*
G37*
G36*
X151380600Y-116808989D02*
G01*
X151413652Y-116819015D01*
X151444103Y-116835292D01*
X151470799Y-116857201D01*
X151492708Y-116883897D01*
X151508985Y-116914348D01*
X151519011Y-116947400D01*
X151523000Y-116987903D01*
X151523000Y-118724097D01*
X151519011Y-118764600D01*
X151508985Y-118797652D01*
X151492708Y-118828103D01*
X151470799Y-118854799D01*
X151444103Y-118876708D01*
X151413652Y-118892985D01*
X151380600Y-118903011D01*
X151340097Y-118907000D01*
X149903903Y-118907000D01*
X149863400Y-118903011D01*
X149830348Y-118892985D01*
X149799897Y-118876708D01*
X149773201Y-118854799D01*
X149751292Y-118828103D01*
X149735015Y-118797652D01*
X149724989Y-118764600D01*
X149721000Y-118724097D01*
X149721000Y-116987903D01*
X149724989Y-116947400D01*
X149735015Y-116914348D01*
X149751292Y-116883897D01*
X149773201Y-116857201D01*
X149799897Y-116835292D01*
X149830348Y-116819015D01*
X149863400Y-116808989D01*
X149903903Y-116805000D01*
X151340097Y-116805000D01*
X151380600Y-116808989D01*
G37*
M02*
